<?xml version="1.0" standalone="no"?>
<!DOCTYPE svg PUBLIC "-//W3C//DTD SVG 20010904//EN"
 "http://www.w3.org/TR/2001/REC-SVG-20010904/DTD/svg10.dtd">
<svg version="1.0" xmlns="http://www.w3.org/2000/svg"
 width="7374.000000pt" height="3330.000000pt" viewBox="0 0 7374.000000 3330.000000"
 preserveAspectRatio="xMidYMid meet">

<g transform="translate(0.000000,3330.000000) scale(0.100000,-0.100000)"
fill="#ccc" stroke="none">
<path d="M70383 33233 c-132 -237 -238 -563 -298 -915 -31 -183 -49 -342 -80
-708 -29 -343 -45 -470 -86 -710 -74 -434 -145 -675 -278 -945 l-86 -173 -150
-162 -150 -161 -40 5 c-22 3 -94 10 -160 16 -66 6 -217 20 -335 31 -118 10
-282 19 -365 19 -82 0 -267 7 -410 15 -143 8 -337 15 -432 15 l-172 0 -56 66
c-107 126 -212 304 -260 439 -16 48 -16 56 -1 165 21 143 67 354 156 710 81
326 124 526 146 687 21 157 21 429 -1 548 -23 133 -18 125 -84 125 -98 0 -152
-11 -149 -29 2 -9 14 -17 28 -19 14 -1 44 -9 66 -18 61 -22 68 -48 60 -197
-13 -246 -58 -432 -258 -1072 -84 -268 -108 -334 -108 -294 0 9 -14 58 -31
110 -101 306 -285 497 -616 635 -59 25 -116 44 -127 42 -45 -6 -18 -34 80 -84
220 -111 343 -223 426 -389 83 -163 97 -254 108 -690 12 -433 25 -656 45 -741
8 -36 15 -71 15 -77 0 -7 -34 -23 -75 -35 -95 -31 -184 -83 -252 -149 l-54
-52 -104 -15 c-139 -21 -168 -32 -266 -103 -114 -83 -253 -169 -379 -236
l-105 -56 -95 75 c-250 198 -546 368 -760 438 -207 67 -377 93 -700 106 -118
5 -234 14 -258 20 -23 5 -66 29 -95 53 -29 23 -90 59 -137 81 -199 90 -237
109 -314 156 -101 61 -245 168 -340 253 -139 125 -261 299 -336 479 -130 311
-156 370 -198 441 -57 97 -126 175 -190 216 -59 38 -167 66 -216 57 -48 -9
-47 -33 2 -41 124 -20 220 -102 295 -250 58 -117 85 -198 158 -473 72 -270 96
-330 185 -465 119 -179 394 -432 601 -553 l67 -39 -40 -6 c-214 -36 -589 -62
-789 -55 -416 14 -698 97 -1031 301 -548 335 -866 804 -937 1379 -7 54 -16 98
-22 98 -17 -3 -17 -216 -1 -341 43 -327 158 -608 351 -856 63 -80 216 -234
310 -312 l49 -41 -199 -7 c-235 -8 -278 -3 -477 61 -79 24 -183 56 -232 70
-196 55 -372 181 -485 347 -32 47 -45 55 -56 37 -9 -14 66 -156 120 -228 81
-107 167 -161 378 -236 67 -24 149 -56 182 -71 193 -87 332 -115 630 -125 206
-7 239 -10 318 -34 48 -14 96 -26 106 -26 11 0 32 -7 48 -15 148 -76 383 -170
537 -214 344 -98 664 -116 1306 -71 680 47 1062 12 1347 -125 50 -24 125 -66
166 -94 82 -55 247 -189 247 -201 0 -3 -21 -17 -47 -29 l-48 -22 -70 29 c-284
117 -573 179 -886 189 -326 11 -476 -16 -917 -163 -481 -159 -589 -184 -812
-184 -258 0 -516 61 -944 222 -157 59 -188 63 -172 23 12 -34 447 -226 675
-299 464 -149 698 -150 1195 -4 484 143 590 162 886 162 283 0 459 -30 702
-120 l98 -36 -29 -37 c-61 -76 -209 -208 -441 -393 -80 -64 -171 -142 -202
-175 -31 -32 -136 -177 -233 -322 -184 -275 -244 -385 -410 -746 -167 -366
-209 -451 -312 -648 -220 -421 -305 -652 -332 -897 -5 -47 -35 -215 -66 -375
-108 -557 -119 -656 -104 -905 6 -96 17 -200 25 -230 27 -99 111 -197 184
-215 25 -6 27 -3 69 132 23 76 63 188 88 248 24 61 65 160 89 220 158 393 630
1220 897 1573 290 382 673 758 1095 1075 55 41 95 79 98 93 4 17 15 24 44 29
22 4 44 13 51 21 13 16 39 19 39 5 0 -6 -4 -13 -10 -16 -5 -3 -10 -21 -10 -38
0 -18 -4 -48 -10 -67 -8 -27 -6 -46 9 -90 18 -54 18 -59 -6 -370 -29 -377 -27
-488 17 -795 37 -259 40 -371 21 -701 -16 -281 -10 -615 14 -774 9 -58 20
-128 24 -156 9 -61 -1 -173 -30 -349 -26 -157 -24 -288 16 -915 40 -630 62
-1051 58 -1100 -2 -25 -8 -79 -13 -120 -13 -93 -24 -303 -25 -432 0 -92 2 -99
30 -140 l31 -43 -9 -185 c-4 -102 -6 -389 -2 -639 l5 -453 28 -47 c24 -40 27
-56 27 -131 0 -72 -4 -92 -27 -135 -14 -27 -37 -60 -50 -71 -65 -60 -198 -94
-302 -78 l-60 9 -4 205 c-2 113 4 374 13 580 22 476 17 770 -14 884 -42 157
-105 260 -204 332 -63 47 -91 54 -101 28 -5 -12 11 -34 50 -72 180 -176 188
-447 28 -972 -30 -102 -57 -186 -58 -187 -1 -2 -24 36 -50 85 -68 124 -139
226 -271 392 -137 172 -182 257 -259 490 -70 211 -87 294 -93 460 -10 256 48
491 179 722 42 74 41 101 -1 96 -48 -6 -192 -232 -283 -444 -98 -227 -133
-426 -125 -704 11 -345 70 -552 287 -1001 71 -146 145 -303 164 -350 l36 -84
-56 60 c-31 33 -113 137 -184 230 -71 94 -156 197 -190 230 -141 137 -389 442
-508 623 -34 51 -79 114 -101 138 -54 61 -88 125 -148 274 -60 148 -104 284
-105 325 -1 16 -13 50 -29 76 -45 77 -96 217 -123 340 -14 64 -26 125 -26 136
0 10 -18 75 -40 143 -23 68 -59 196 -81 284 -23 89 -50 173 -60 188 -10 15
-19 32 -19 38 0 14 -36 12 -49 -3 -14 -18 -37 -121 -51 -227 -6 -47 -13 -215
-16 -375 -4 -236 -2 -305 10 -370 9 -44 27 -147 40 -230 69 -421 194 -964 312
-1353 99 -327 292 -695 572 -1092 119 -167 350 -477 410 -548 24 -29 43 -55
40 -57 -2 -2 -52 4 -110 15 -146 26 -348 47 -638 65 -394 25 -571 55 -693 116
-119 60 -220 157 -274 262 -19 38 -28 48 -46 45 -36 -5 -27 -65 26 -171 52
-104 126 -193 226 -269 83 -62 254 -147 391 -192 145 -48 702 -188 1140 -285
595 -133 577 -128 660 -177 226 -130 487 -233 664 -261 128 -19 287 -51 294
-58 7 -7 -43 -357 -93 -650 -24 -137 -49 -286 -55 -330 -7 -44 -22 -95 -32
-113 -14 -23 -17 -36 -10 -45 7 -9 -11 -40 -64 -112 -163 -221 -302 -483 -527
-992 -68 -155 -160 -346 -204 -425 -44 -79 -124 -222 -178 -318 -156 -277
-223 -431 -411 -943 -23 -63 -43 -94 -97 -155 -148 -166 -264 -371 -442 -782
-54 -124 -132 -295 -175 -380 -92 -184 -181 -379 -337 -740 -163 -378 -295
-642 -400 -800 -69 -104 -167 -288 -424 -800 -451 -896 -653 -1312 -678 -1390
-26 -82 -51 -195 -51 -237 0 -18 -13 -53 -30 -80 -16 -26 -52 -109 -78 -183
-61 -170 -70 -186 -142 -266 -40 -44 -63 -80 -70 -107 -69 -266 -114 -383
-293 -752 -69 -143 -160 -343 -202 -444 -42 -101 -99 -230 -127 -285 -48 -97
-185 -305 -269 -411 -53 -67 -79 -153 -79 -264 0 -114 -21 -195 -80 -316 -39
-80 -59 -143 -100 -310 -173 -704 -419 -1418 -725 -2095 -53 -118 -125 -298
-160 -400 -35 -102 -107 -293 -161 -425 -187 -461 -240 -622 -335 -1011 l-53
-217 32 -28 c18 -16 39 -29 47 -29 24 0 250 208 295 273 41 59 124 172 461
627 158 212 253 333 381 483 86 100 229 331 286 463 89 203 242 445 412 653
97 118 111 141 317 535 119 226 286 548 373 716 86 168 238 442 337 610 255
432 296 509 354 655 63 160 207 481 295 658 67 135 201 374 214 382 4 2 15
-22 24 -53 10 -31 51 -142 92 -245 41 -104 74 -195 74 -202 0 -26 -72 -250
-117 -364 -25 -64 -95 -226 -155 -361 -202 -450 -253 -601 -273 -815 -12 -129
27 -325 66 -325 10 0 19 1 19 3 0 1 -7 27 -15 57 -17 65 -20 236 -4 312 38
191 143 409 367 765 84 133 171 276 193 317 22 42 42 76 44 76 6 0 65 -188 86
-275 41 -171 61 -319 66 -510 10 -362 -42 -651 -233 -1295 -65 -218 -75 -263
-63 -270 9 -6 18 -5 26 3 7 7 51 117 97 245 342 931 416 1341 350 1927 -18
161 -39 285 -115 683 -96 507 -129 744 -129 933 0 173 18 243 119 457 90 190
115 255 127 327 8 54 40 158 58 193 8 16 43 54 76 83 61 54 62 55 75 130 17
98 61 185 173 336 68 93 93 135 102 175 23 95 61 190 165 408 56 118 117 253
136 300 26 66 92 173 304 490 260 387 273 409 295 490 35 134 92 267 220 516
94 183 127 258 160 365 51 169 89 248 235 494 65 108 141 249 170 314 93 207
152 313 293 524 183 272 222 347 286 547 26 80 65 179 87 220 21 41 66 128 99
194 33 65 62 112 65 105 8 -24 84 -497 104 -654 49 -379 51 -595 6 -1095 -32
-368 -48 -421 -236 -809 -68 -141 -98 -213 -94 -228 6 -27 42 -40 61 -22 7 8
66 111 132 229 139 252 188 334 292 490 94 140 120 191 153 295 53 170 62 253
62 600 0 356 -8 442 -74 835 -34 202 -36 221 -18 199 25 -32 132 -157 298
-350 303 -352 379 -505 379 -762 0 -143 -25 -280 -76 -411 -37 -95 -37 -116
-4 -116 15 0 32 25 75 113 223 455 121 910 -331 1468 -214 264 -237 295 -294
379 -102 153 -160 267 -170 338 l-9 65 59 86 c33 47 92 123 133 168 40 45 91
110 112 145 21 35 90 139 154 232 l115 170 3 70 c8 150 72 307 187 460 62 82
131 136 175 136 55 0 111 -44 322 -252 298 -294 371 -397 464 -653 26 -71 90
-220 142 -330 242 -509 253 -535 339 -850 126 -459 145 -657 94 -965 -11 -63
-27 -207 -35 -320 -20 -263 -26 -298 -68 -407 -38 -98 -137 -461 -186 -683
-30 -135 -84 -426 -117 -637 l-18 -111 -87 -42 -88 -42 -143 21 c-448 64 -725
53 -1096 -44 -359 -95 -745 -285 -1049 -518 -127 -98 -147 -119 -139 -150 11
-47 33 -40 172 52 512 342 1078 477 1644 392 l45 -6 -127 -67 c-256 -135 -379
-221 -698 -487 -650 -542 -925 -879 -1021 -1249 -26 -100 -34 -258 -17 -337
12 -54 16 -60 38 -60 l25 0 1 120 c1 66 7 142 13 170 42 175 158 357 330 517
143 132 440 342 691 488 143 83 380 203 387 197 7 -8 -93 -266 -173 -444 -77
-173 -238 -490 -338 -669 -33 -59 -54 -108 -50 -117 9 -24 31 -28 53 -9 26 23
300 435 391 587 142 239 242 480 272 654 11 63 16 75 38 83 14 6 129 47 255
93 127 45 297 108 378 139 82 32 150 56 152 54 2 -2 -46 -195 -106 -428 -61
-234 -155 -609 -209 -835 -217 -901 -274 -1111 -431 -1578 -130 -387 -143
-446 -143 -652 0 -88 5 -178 10 -199 l10 -40 146 210 c307 439 659 901 985
1294 154 185 191 224 263 274 46 33 158 132 249 220 187 182 255 239 433 359
317 216 549 332 783 391 55 13 181 39 280 56 324 55 444 93 576 179 175 115
383 372 518 639 144 285 291 750 375 1187 61 316 98 471 130 541 54 117 135
184 223 184 44 0 69 20 59 46 -5 14 -18 16 -79 12 -89 -6 -145 -33 -208 -99
-92 -96 -154 -252 -233 -579 -70 -293 -169 -547 -342 -880 -182 -350 -374
-567 -566 -638 -35 -13 -91 -16 -300 -16 -142 -1 -258 -1 -258 0 0 0 9 27 20
60 12 32 45 145 75 249 132 465 276 805 462 1083 71 108 83 142 49 142 -8 0
-36 -28 -62 -62 -98 -126 -209 -321 -389 -678 -203 -404 -258 -490 -400 -634
-139 -141 -250 -220 -365 -257 -135 -45 -306 -120 -433 -190 -60 -33 -111 -59
-112 -57 -2 2 19 57 46 123 78 191 259 546 369 725 121 195 161 273 268 522
45 102 97 219 118 259 56 111 82 190 99 289 12 79 20 98 58 153 24 34 88 143
142 242 54 99 106 190 115 202 10 13 45 43 78 68 72 54 131 118 266 285 106
133 207 237 375 390 114 103 151 161 151 238 0 98 -38 150 -279 379 -419 396
-583 609 -636 826 -9 37 -20 120 -25 183 -12 147 -39 225 -142 424 -45 85
-114 218 -154 296 -78 149 -136 307 -153 414 -18 108 -25 106 112 35 132 -69
261 -116 402 -147 75 -17 148 -21 430 -28 371 -8 440 -17 570 -71 193 -80 305
-240 438 -624 48 -138 66 -181 81 -183 39 -8 38 14 -10 199 -75 298 -137 450
-234 581 -120 164 -249 226 -730 355 -457 122 -611 187 -817 342 -103 78 -276
242 -266 251 9 9 239 51 438 81 99 14 212 22 385 26 262 5 305 2 635 -52 199
-33 449 -45 458 -23 3 8 2 19 -1 24 -4 5 -61 19 -128 32 -66 12 -238 55 -381
96 -377 108 -446 120 -678 120 -207 -1 -425 -23 -743 -74 -101 -17 -192 -30
-202 -30 -11 0 -39 14 -65 31 -39 27 -44 34 -39 57 4 15 8 29 10 31 2 2 -16
42 -40 90 -134 268 -234 689 -212 894 6 57 10 67 27 67 13 0 19 -7 19 -22 0
-20 1 -20 18 -5 10 10 31 17 45 17 22 0 489 168 803 289 69 27 102 50 240 164
325 269 323 268 739 557 636 442 722 514 1051 880 106 118 229 248 274 289 85
77 210 234 329 415 99 151 155 257 202 383 68 185 78 203 194 378 145 217 218
352 360 664 137 302 198 452 226 557 20 76 22 121 16 344 -1 29 18 107 51 215
50 164 53 183 96 540 67 550 69 569 64 668 -3 59 -24 178 -57 327 -29 129 -61
305 -72 390 -25 196 -37 245 -98 383 -28 62 -66 168 -86 237 -76 263 -115 372
-205 570 -101 223 -164 383 -200 500 -89 299 -290 681 -556 1057 -214 302
-301 412 -635 799 -500 579 -818 818 -1413 1064 l-138 58 43 24 c174 98 289
166 459 273 236 147 304 185 400 225 146 60 363 103 605 119 215 14 413 -12
527 -70 81 -41 161 -133 233 -267 35 -64 68 -78 98 -41 17 21 19 36 15 114 -6
110 -31 181 -95 266 -109 145 -310 267 -535 323 -438 111 -1003 23 -1725 -270
-76 -31 -145 -59 -153 -62 -7 -3 12 28 45 69 439 558 677 964 938 1604 245
598 388 859 585 1067 106 111 192 177 297 229 109 53 178 69 325 77 108 6 125
9 128 24 6 33 -43 42 -213 42 -149 0 -166 -2 -245 -28 -223 -74 -412 -215
-596 -445 -157 -195 -257 -358 -482 -781 -138 -262 -298 -535 -405 -695 -81
-121 -260 -366 -264 -362 -1 2 2 66 8 143 13 158 7 349 -21 799 -51 804 -6
1232 171 1631 52 116 56 144 20 144 -14 0 -31 -20 -58 -67z m-1923 -5373 c176
-48 417 -101 525 -116 28 -3 55 -11 61 -16 7 -5 50 -15 96 -23 219 -39 429
-115 753 -275 254 -126 391 -205 490 -285 213 -171 524 -484 790 -795 313
-365 562 -750 646 -1000 25 -74 33 -118 36 -195 4 -83 11 -115 38 -185 43
-109 88 -278 120 -454 14 -77 37 -172 51 -210 15 -39 41 -116 60 -170 l34 -99
5 -304 5 -303 -35 -17 -35 -17 0 -155 c0 -370 -64 -635 -251 -1047 -41 -89
-68 -135 -82 -142 -12 -5 -76 -48 -143 -95 -216 -152 -345 -214 -564 -271
-282 -74 -324 -78 -516 -51 -329 46 -495 107 -869 318 -360 204 -547 267 -784
267 -112 0 -150 -12 -138 -42 4 -12 32 -16 139 -21 274 -10 464 -98 881 -409
111 -83 236 -173 277 -201 41 -27 79 -53 83 -57 5 -4 -49 -27 -120 -50 -442
-146 -943 -392 -1203 -590 -86 -66 -232 -214 -277 -280 -71 -105 -141 -277
-127 -313 7 -20 32 -29 51 -19 8 5 27 38 42 74 88 207 286 387 582 526 354
168 710 250 1219 282 422 26 501 32 610 46 103 13 162 24 352 66 32 6 60 9 63
6 17 -17 -95 -247 -190 -388 -93 -139 -173 -234 -377 -451 -101 -107 -251
-268 -333 -358 -167 -183 -200 -212 -401 -358 -464 -336 -896 -529 -1341 -599
-109 -17 -712 -37 -728 -24 -5 4 -73 15 -150 25 -343 41 -421 77 -461 211 -8
26 -23 156 -34 288 -11 133 -36 360 -55 506 -57 438 -72 618 -95 1110 -6 124
-15 304 -20 400 -14 251 -12 412 5 516 50 312 55 367 40 455 -27 157 -35 303
-35 649 0 203 -5 382 -12 435 -6 50 -12 228 -12 400 l-1 310 -38 108 c-38 105
-39 111 -34 210 20 381 25 619 17 788 -6 102 -39 508 -75 901 -73 807 -74 741
5 885 56 102 144 232 212 311 l53 63 131 44 c72 24 228 82 345 130 259 105
302 116 434 110 80 -3 138 -15 285 -55z"/>
<path d="M8545 30973 c-209 -29 -326 -131 -548 -478 -52 -83 -126 -186 -163
-230 -130 -154 -342 -344 -509 -455 -44 -29 -112 -77 -150 -105 l-70 -52 -203
-7 c-324 -11 -683 -58 -882 -116 -65 -19 -131 -30 -210 -35 -63 -4 -153 -12
-200 -19 -71 -11 -90 -11 -112 0 -66 33 -156 11 -284 -71 -32 -21 -99 -54
-149 -74 -82 -34 -142 -69 -232 -135 -92 -67 -534 -80 -907 -25 -174 25 -352
62 -701 144 -148 35 -434 100 -634 145 -491 108 -468 102 -594 178 -267 163
-280 174 -532 426 -333 335 -419 406 -588 487 -79 37 -217 79 -263 79 -23 0
-37 -20 -26 -37 4 -5 32 -17 62 -27 210 -67 375 -194 676 -519 108 -117 235
-250 282 -296 73 -70 82 -82 58 -77 -16 4 -94 19 -175 33 -132 24 -171 27
-396 27 -236 1 -257 -1 -379 -27 -265 -57 -716 -225 -716 -267 0 -11 4 -22 10
-25 5 -3 70 17 144 44 145 55 302 98 461 127 140 26 546 27 685 1 212 -40 421
-106 660 -210 106 -45 661 -305 668 -312 6 -5 -258 -105 -423 -161 -152 -51
-245 -72 -660 -149 -160 -30 -264 -55 -382 -91 -72 -21 -84 -28 -89 -51 -13
-51 -2 -51 347 -16 627 62 755 91 1263 278 122 44 218 75 230 72 12 -3 113
-37 226 -76 282 -97 625 -182 864 -216 l50 -7 -93 -59 c-50 -33 -160 -96 -244
-141 -278 -148 -398 -245 -542 -438 -78 -104 -149 -183 -331 -371 -167 -173
-261 -293 -298 -384 -10 -22 -61 -123 -116 -225 -120 -226 -146 -291 -310
-776 -72 -211 -168 -481 -214 -601 -108 -280 -150 -402 -186 -538 -35 -131
-60 -296 -60 -391 0 -38 -14 -204 -30 -369 -46 -456 -56 -659 -42 -807 17
-179 49 -352 73 -401 39 -77 129 -157 178 -157 16 0 22 11 31 58 91 453 248
923 500 1492 201 453 320 678 505 955 199 298 383 521 673 816 122 125 192
203 192 216 0 16 9 22 34 27 18 4 41 15 51 26 21 23 39 17 26 -9 -19 -34 -14
-153 8 -213 20 -54 21 -77 21 -370 0 -352 6 -420 56 -662 86 -418 83 -399 94
-731 14 -444 35 -650 87 -873 28 -116 28 -120 25 -410 -3 -330 -13 -228 118
-1182 116 -841 109 -777 114 -1150 4 -352 5 -363 53 -432 22 -32 26 -51 29
-125 9 -210 36 -602 54 -768 45 -419 45 -450 0 -523 -24 -39 -89 -71 -142 -72
-48 0 -184 43 -274 87 -96 47 -157 95 -223 176 -31 37 -81 84 -111 104 -129
85 -489 497 -657 753 -45 69 -118 168 -162 220 -44 52 -96 118 -117 145 -21
28 -78 93 -128 145 -354 376 -726 942 -841 1282 l-29 86 -57 11 c-90 18 -92
15 -84 -98 8 -123 41 -381 61 -491 17 -92 66 -236 134 -395 62 -147 329 -703
557 -1160 120 -241 219 -454 248 -535 28 -74 84 -204 126 -287 l75 -153 -76 0
c-179 0 -365 52 -697 194 -372 159 -588 239 -799 296 -129 35 -157 35 -152 -2
2 -19 23 -31 108 -66 216 -88 350 -159 884 -466 121 -69 213 -127 205 -130
-59 -19 -812 -174 -959 -197 -244 -40 -230 -36 -230 -59 0 -28 59 -34 330 -34
301 0 501 20 957 94 234 38 245 39 305 25 35 -7 97 -17 138 -20 86 -7 231 -31
275 -46 34 -11 193 -206 516 -634 108 -143 215 -277 239 -299 23 -21 68 -49
99 -62 139 -60 160 -76 348 -255 301 -287 301 -287 168 -687 -114 -341 -158
-428 -278 -551 -61 -62 -98 -83 -198 -111 -95 -26 -108 -26 -225 9 -140 42
-246 89 -424 186 -349 193 -467 244 -685 300 -392 100 -723 56 -915 -122 -33
-30 -60 -59 -60 -64 0 -17 31 -9 63 15 203 152 538 139 892 -34 55 -26 134
-75 176 -107 99 -75 318 -257 314 -261 -1 -1 -64 -12 -141 -23 -1020 -149
-1775 -553 -2102 -1123 -53 -92 -115 -248 -110 -275 2 -9 11 -17 20 -19 12 -2
28 20 58 80 168 333 480 577 927 724 220 72 615 141 765 132 l53 -3 -125 -129
c-250 -257 -445 -379 -675 -421 -124 -23 -122 -22 -102 -42 13 -13 37 -17 124
-16 181 0 367 62 556 186 105 68 172 129 326 295 l123 132 57 0 c75 0 281 -25
461 -55 201 -34 388 -55 492 -55 l87 0 -24 -70 c-33 -96 -94 -223 -207 -431
-148 -271 -198 -402 -198 -528 -1 -78 -23 -194 -53 -273 -68 -179 -196 -337
-552 -685 -298 -290 -335 -337 -335 -428 0 -98 34 -145 221 -312 127 -114 200
-192 343 -371 85 -107 166 -191 234 -242 68 -51 78 -66 197 -285 48 -88 102
-181 120 -206 47 -66 65 -104 65 -137 0 -61 43 -193 109 -332 38 -80 95 -206
126 -280 31 -74 84 -187 116 -251 l59 -116 -10 -104 c-22 -210 -48 -365 -107
-631 l-37 -168 -209 -192 c-272 -250 -373 -362 -504 -558 -319 -478 -538
-1071 -708 -1916 -51 -252 -57 -309 -36 -309 11 0 28 55 62 200 178 754 380
1281 662 1730 80 127 237 332 333 434 81 86 301 277 310 268 2 -1 -17 -86 -42
-188 -217 -887 -261 -1117 -374 -1994 -98 -756 -91 -1288 20 -1664 111 -374
306 -607 586 -700 109 -37 118 -37 138 -9 23 32 8 47 -85 82 -306 115 -478
380 -546 843 -23 161 -23 562 1 803 49 504 138 860 379 1530 l81 225 18 -75
c55 -234 81 -462 81 -715 0 -305 -37 -546 -124 -807 -21 -65 -39 -122 -39
-127 0 -6 10 -15 21 -22 32 -16 50 8 98 133 130 336 190 696 178 1058 -6 167
-20 282 -90 729 l-23 144 78 216 c103 283 209 609 259 796 22 83 44 161 48
174 6 20 11 13 35 -50 81 -208 214 -517 267 -619 33 -63 91 -160 129 -215 95
-137 103 -157 146 -345 20 -91 43 -182 50 -202 7 -21 69 -104 137 -185 361
-432 728 -914 1062 -1393 l129 -184 10 39 c5 22 9 110 9 195 1 204 -16 279
-148 675 -158 471 -195 608 -460 1700 -42 171 -140 562 -220 870 -124 482
-149 593 -180 795 -20 129 -39 246 -42 260 -5 21 6 14 68 -41 95 -84 203 -170
304 -244 204 -148 256 -233 395 -640 27 -77 72 -198 100 -270 59 -145 118
-316 145 -415 20 -73 30 -89 45 -74 12 12 -34 239 -106 524 -24 96 -62 252
-83 345 -22 94 -44 182 -50 197 -6 16 -8 28 -6 28 3 0 117 -74 254 -164 174
-114 274 -187 331 -242 246 -234 390 -513 523 -1014 40 -148 47 -165 67 -168
22 -4 23 -2 16 45 -3 26 -26 127 -50 223 -108 428 -239 734 -416 969 -87 115
-240 265 -462 452 -400 337 -850 756 -1047 972 -68 76 -130 145 -137 155 -7
11 -32 93 -54 183 -69 275 -99 380 -135 474 -44 114 -51 153 -70 409 -9 115
-26 261 -37 325 -43 233 -28 475 48 784 96 391 143 521 316 882 71 149 154
333 184 410 90 231 102 257 152 335 27 41 83 116 125 166 88 105 411 418 465
451 90 55 167 8 291 -176 89 -131 141 -277 141 -396 l0 -61 128 -190 c70 -105
146 -220 170 -255 23 -35 75 -100 114 -144 133 -149 220 -299 368 -635 45
-102 120 -259 167 -350 61 -118 102 -214 145 -340 64 -189 98 -254 258 -495
48 -71 114 -175 148 -230 56 -93 79 -137 190 -377 22 -48 90 -169 150 -270
146 -245 171 -297 227 -472 37 -120 72 -199 179 -410 108 -212 143 -291 186
-424 l52 -162 173 -259 174 -258 -11 -44 c-16 -65 -13 -257 6 -394 24 -169 39
-239 106 -495 95 -360 104 -435 120 -902 l11 -317 -50 -68 c-27 -37 -102 -160
-166 -273 -134 -234 -151 -260 -334 -510 -368 -503 -418 -646 -456 -1315 -23
-393 -55 -603 -115 -754 -16 -42 -18 -56 -8 -62 21 -13 36 9 77 115 66 167 92
286 166 758 47 301 105 487 202 653 40 67 91 123 324 355 152 151 304 310 338
353 34 44 63 73 65 65 2 -7 9 -60 16 -118 14 -131 44 -321 120 -760 33 -190
87 -527 120 -750 101 -678 155 -957 250 -1287 181 -631 466 -1105 946 -1573
193 -188 295 -273 318 -264 9 3 16 11 16 16 0 5 -79 87 -176 181 -325 316
-531 592 -712 954 -204 406 -313 808 -366 1348 -18 178 -31 425 -23 425 3 0
24 -35 48 -77 105 -193 213 -330 480 -612 261 -277 336 -364 437 -512 89 -131
171 -335 193 -481 16 -111 18 -118 34 -118 12 0 15 17 15 88 0 322 -150 678
-485 1152 -368 522 -447 645 -561 875 -75 154 -155 373 -173 480 -6 33 -16
242 -23 464 -14 477 -7 609 51 1087 35 286 61 537 61 597 0 19 3 18 36 -14 50
-48 84 -120 100 -213 21 -122 34 -156 194 -496 295 -628 379 -794 526 -1043
116 -196 339 -664 441 -927 55 -143 96 -219 346 -645 110 -187 273 -482 362
-655 446 -867 573 -1100 644 -1184 167 -199 284 -374 390 -586 37 -74 74 -151
81 -170 13 -33 109 -194 174 -291 17 -26 88 -115 158 -198 70 -83 195 -242
278 -353 282 -380 387 -523 463 -628 55 -77 106 -132 192 -208 63 -56 122
-102 130 -102 8 0 29 13 46 28 l32 28 -33 140 c-91 390 -160 604 -335 1039
-73 182 -158 404 -188 495 -30 91 -85 230 -122 310 -307 665 -571 1420 -750
2145 -42 171 -67 249 -95 305 -65 128 -82 191 -90 337 -6 116 -11 138 -37 195
-17 34 -47 83 -68 108 -48 57 -181 255 -228 340 -19 36 -61 126 -92 200 -31
74 -75 178 -97 230 -22 52 -98 214 -168 360 -152 316 -211 461 -255 633 -36
137 -35 136 -106 213 -58 63 -78 101 -134 260 -24 69 -58 147 -75 173 -17 28
-30 61 -30 80 0 55 -30 182 -67 281 -19 52 -86 196 -149 320 -63 124 -181 362
-264 530 -319 651 -606 1204 -681 1315 -118 175 -184 308 -434 880 -86 198
-217 484 -290 635 -73 151 -168 356 -210 455 -159 371 -274 568 -427 731 -43
46 -56 72 -137 285 -187 494 -214 553 -421 914 -149 259 -211 381 -308 605
-253 579 -407 860 -612 1114 -98 122 -107 138 -210 367 -117 259 -160 344
-259 513 -45 75 -81 139 -81 142 0 17 207 129 696 376 l559 283 125 130 c251
262 401 406 670 646 328 291 585 541 685 664 40 49 132 176 205 280 147 210
167 237 257 344 78 92 170 247 276 463 l82 167 180 66 c227 84 453 195 574
282 52 38 143 114 202 171 l108 103 203 90 c353 157 467 227 619 378 121 121
185 210 362 506 158 264 231 368 332 470 93 94 174 152 291 207 83 38 97 54
71 77 -11 8 -31 5 -83 -13 -252 -86 -414 -221 -743 -613 -279 -335 -385 -432
-556 -514 -54 -26 -101 -47 -102 -45 -2 2 17 40 42 84 152 270 241 564 385
1277 93 460 150 694 225 920 105 322 203 502 355 655 134 136 236 186 400 199
67 5 75 8 78 27 3 19 -3 23 -46 29 -65 9 -184 -9 -273 -40 -244 -85 -466 -328
-662 -724 -135 -271 -159 -339 -427 -1171 -173 -538 -276 -758 -488 -1043
-169 -228 -340 -413 -474 -513 -90 -67 -283 -172 -294 -161 -3 3 15 51 39 108
65 153 108 272 197 542 159 486 164 520 134 838 -5 53 0 97 25 219 38 183 52
413 54 935 l2 340 -76 260 c-42 143 -91 330 -108 416 -31 157 -55 238 -85 297
-12 23 -14 37 -7 50 18 34 82 267 106 387 49 246 60 385 59 740 -1 210 -7 395
-17 509 -11 128 -13 185 -5 199 7 14 7 41 -2 93 -8 46 -11 120 -7 201 9 219
66 368 294 766 246 429 308 577 334 802 9 81 3 175 -11 175 -5 0 -11 -24 -15
-52 -23 -179 -78 -293 -280 -578 -107 -151 -187 -279 -321 -515 l-79 -140 -7
65 c-15 136 -21 713 -9 855 54 644 247 1118 612 1500 53 55 85 96 79 100 -32
20 -299 -220 -421 -380 -351 -457 -529 -1107 -529 -1929 0 -150 9 -378 25
-615 15 -218 24 -439 23 -526 l-3 -150 -41 110 c-23 61 -76 224 -119 363 -85
283 -115 364 -240 667 -167 406 -223 607 -232 848 -4 93 -10 136 -17 134 -19
-6 -28 -108 -23 -272 8 -243 43 -405 172 -805 88 -271 155 -493 255 -845 114
-400 170 -578 189 -605 18 -25 18 -28 -14 -145 -18 -66 -44 -148 -57 -183
l-23 -62 -98 194 c-53 107 -126 266 -161 353 -172 428 -391 768 -823 1280
-151 179 -597 649 -731 771 -346 313 -681 506 -1126 651 -105 34 -533 151
-553 151 -4 0 40 31 98 69 58 37 166 112 240 166 356 261 539 356 777 401 127
25 309 23 451 -5 93 -18 116 -20 122 -9 19 29 4 43 -76 68 -144 44 -247 61
-407 67 -311 11 -485 -37 -960 -263 -119 -57 -262 -122 -316 -143 -97 -39
-221 -76 -228 -68 -2 2 35 46 83 98 100 110 219 256 256 316 15 23 76 140 136
260 126 250 173 326 252 403 68 68 135 105 231 129 58 15 73 23 73 37 0 20
-30 26 -90 17z m-1778 -3097 c98 -19 243 -42 323 -51 80 -8 170 -20 200 -26
30 -6 91 -15 135 -20 210 -24 428 -89 722 -215 346 -147 444 -208 743 -462
154 -130 560 -536 694 -694 354 -416 548 -755 557 -978 2 -39 14 -79 40 -135
51 -109 111 -286 153 -452 22 -88 59 -194 102 -293 l67 -155 13 -160 c8 -88
21 -208 29 -268 23 -163 21 -185 -16 -205 l-30 -17 8 -100 c14 -179 9 -479
-11 -600 -25 -156 -86 -386 -146 -555 -28 -80 -69 -197 -91 -260 -23 -63 -58
-149 -80 -190 -106 -203 -201 -418 -215 -490 -54 -263 -207 -561 -465 -900
-52 -69 -162 -219 -244 -333 -175 -245 -203 -278 -366 -432 -232 -220 -494
-414 -723 -536 l-99 -52 7 34 c61 298 103 643 117 969 7 157 16 265 26 300 26
95 104 256 252 523 268 481 352 711 354 957 0 124 -18 203 -69 308 -38 79 -56
94 -81 69 -15 -14 -14 -20 5 -64 49 -116 54 -284 12 -433 -28 -101 -122 -291
-210 -425 -101 -154 -321 -457 -328 -451 -2 3 -31 135 -64 293 -160 781 -162
794 -162 1128 -1 213 2 278 18 360 37 200 119 405 226 569 53 82 59 109 23
114 -17 3 -38 -20 -105 -110 -133 -178 -192 -282 -261 -458 -121 -304 -157
-595 -138 -1090 33 -849 34 -858 22 -1059 -13 -228 -56 -589 -107 -896 -20
-115 -37 -211 -39 -213 -9 -9 -31 18 -113 141 -217 325 -352 628 -418 938 -20
97 -27 164 -31 305 -6 193 2 286 38 428 18 72 19 80 4 95 -24 25 -46 4 -82
-80 -137 -318 -148 -701 -33 -1134 62 -231 155 -489 305 -840 88 -207 182
-462 173 -470 -2 -1 -91 -12 -198 -23 -136 -14 -210 -18 -245 -12 -27 5 -88 9
-135 9 -116 1 -254 18 -298 37 -72 30 -119 92 -141 189 -6 28 -29 160 -51 295
-21 135 -66 378 -100 540 -66 325 -104 573 -180 1175 -61 492 -73 621 -66 705
22 239 25 376 10 445 -54 246 -64 324 -89 665 -17 239 -37 412 -61 522 -8 40
-19 165 -24 276 -13 277 -26 346 -89 484 -33 74 -39 126 -45 403 -9 412 -18
488 -186 1496 -73 436 -109 676 -105 699 15 88 104 284 202 446 l55 90 98 43
c87 38 188 91 465 241 164 91 266 99 542 46z"/>
<path d="M34489 29038 c-17 -31 -5 -272 19 -393 11 -55 28 -161 36 -235 9 -74
29 -202 46 -285 l31 -150 -11 -190 c-24 -450 62 -1189 197 -1695 34 -129 36
-144 38 -320 3 -209 16 -309 80 -617 50 -241 81 -441 91 -590 5 -72 11 -103
19 -103 23 0 118 -93 156 -154 145 -223 122 -495 -55 -672 -165 -163 -366
-198 -523 -90 -45 31 -51 33 -74 20 -107 -60 -303 -107 -674 -164 -208 -31
-319 -56 -405 -90 -47 -18 -60 -19 -173 -10 -390 33 -583 101 -915 319 -251
165 -332 226 -800 599 -246 196 -483 382 -527 415 -44 33 -83 64 -87 71 -25
38 -58 193 -88 421 -50 377 -117 597 -236 776 -55 84 -141 179 -160 179 -21 0
-19 -4 37 -72 68 -85 144 -241 175 -363 22 -83 27 -130 31 -283 5 -160 -8
-431 -23 -484 -4 -14 -17 -10 -87 28 -184 101 -559 284 -667 327 -212 84 -373
113 -575 104 -134 -7 -188 -14 -485 -66 -96 -16 -210 -33 -253 -37 -77 -7
-104 -18 -72 -30 15 -6 105 -2 584 28 234 14 355 4 494 -42 277 -93 660 -379
918 -685 94 -112 319 -408 314 -413 -2 -2 -34 3 -72 12 -105 24 -240 44 -441
66 -205 22 -290 38 -612 115 -236 56 -361 81 -830 165 -522 93 -836 185 -1271
370 -222 95 -563 272 -669 348 -177 126 -356 314 -493 520 -106 160 -233 429
-287 611 -35 118 -45 74 -15 -67 95 -452 327 -905 617 -1208 151 -158 285
-235 768 -447 335 -146 478 -204 655 -263 72 -24 122 -43 113 -44 -97 -2 -480
-61 -721 -111 -449 -93 -673 -107 -881 -53 -72 18 -184 73 -237 115 -37 29
-59 37 -59 20 0 -15 164 -166 225 -208 142 -96 284 -149 436 -162 117 -10 580
2 703 18 228 31 404 69 688 152 l212 62 173 -5 c139 -5 176 -3 192 9 18 12 40
9 188 -27 188 -45 371 -96 638 -175 99 -29 279 -80 401 -114 252 -69 409 -122
545 -181 148 -66 564 -228 623 -244 90 -23 329 -198 424 -308 23 -28 41 -52
40 -54 -2 -1 -110 -8 -241 -13 -280 -13 -349 -22 -777 -106 -497 -98 -502 -98
-910 -100 -358 -2 -463 -9 -678 -46 -88 -15 -195 -22 -427 -29 -372 -11 -463
-24 -632 -97 l-83 -35 -222 11 c-677 33 -793 35 -1251 23 -471 -13 -680 -22
-1107 -47 -416 -25 -568 -43 -794 -95 -156 -35 -561 -104 -736 -126 -69 -8
-161 -23 -205 -34 -117 -28 -317 -88 -328 -99 -5 -5 -7 -19 -5 -32 3 -23 6
-24 123 -30 181 -9 281 -32 612 -140 302 -98 440 -128 673 -145 82 -6 139 -21
435 -116 l340 -109 88 12 c115 16 271 6 420 -26 64 -14 170 -36 235 -50 75
-16 177 -29 282 -35 106 -6 210 -18 290 -35 335 -70 368 -75 560 -85 259 -14
477 -32 940 -80 212 -22 468 -46 570 -55 247 -21 396 -40 554 -72 121 -25 145
-27 311 -23 325 8 444 5 515 -15 153 -42 235 -55 400 -65 401 -24 465 -31 649
-75 19 -5 -3 -17 -105 -59 -168 -69 -247 -105 -624 -281 -349 -163 -473 -216
-640 -270 -282 -91 -518 -128 -825 -129 -327 -1 -496 32 -697 136 -94 49 -128
55 -128 23 0 -18 97 -91 188 -142 35 -20 113 -53 173 -74 427 -151 975 -123
1501 75 167 62 315 128 673 296 255 120 426 194 534 231 l55 19 -65 -57 c-35
-32 -145 -136 -244 -232 -408 -394 -640 -543 -917 -591 -50 -9 -68 -16 -68
-27 0 -14 15 -15 108 -10 138 7 263 42 410 112 148 71 253 141 600 397 391
289 523 370 726 439 l69 24 346 -45 c430 -56 487 -59 564 -30 31 12 80 40 108
63 28 23 69 54 92 70 l41 27 402 0 c542 0 699 -17 964 -107 74 -25 151 -46
173 -46 46 0 85 34 153 134 25 37 54 75 64 84 13 12 18 25 14 40 -3 13 -1 26
4 29 6 3 59 7 119 7 84 1 117 -3 141 -15 38 -20 114 -119 149 -195 24 -49 25
-61 21 -160 -8 -169 -88 -385 -167 -453 -32 -27 -41 -43 -51 -93 -7 -33 -32
-123 -57 -200 -95 -292 -74 -357 157 -500 175 -107 271 -195 349 -315 70 -108
97 -200 110 -370 7 -94 13 -118 59 -233 76 -188 93 -254 99 -393 4 -88 1 -142
-10 -200 -35 -178 -31 -242 23 -328 41 -64 47 -94 75 -391 48 -503 56 -643 50
-805 -6 -137 -2 -196 30 -500 34 -319 37 -380 45 -805 5 -253 14 -563 20 -690
14 -259 9 -371 -20 -536 -47 -262 -90 -531 -101 -634 -14 -134 -18 -1408 -5
-1720 7 -174 6 -224 -7 -290 -20 -105 -302 -943 -373 -1109 -63 -145 -84 -229
-77 -303 12 -116 -33 -251 -123 -373 -25 -34 -79 -121 -120 -193 -165 -288
-159 -281 -529 -597 -99 -85 -225 -194 -280 -244 -209 -186 -369 -303 -567
-413 -94 -53 -170 -87 -390 -177 -131 -54 -191 -132 -190 -247 0 -82 25 -142
77 -187 49 -44 104 -67 234 -98 278 -67 415 -195 481 -449 30 -113 54 -157
115 -214 105 -96 249 -109 322 -30 22 24 67 117 97 201 27 74 68 123 130 153
47 23 76 29 182 36 100 7 139 14 187 35 137 58 170 67 262 68 50 0 111 -5 137
-13 42 -12 52 -21 106 -100 33 -47 112 -156 176 -241 178 -237 235 -375 222
-534 -6 -81 14 -49 -261 -416 -228 -304 -262 -354 -392 -575 -55 -93 -147
-246 -205 -340 -302 -488 -451 -813 -519 -1135 -30 -140 -33 -403 -6 -528 38
-176 148 -413 195 -420 37 -6 34 20 -12 119 -72 152 -81 197 -81 399 1 187 4
208 66 396 62 190 251 537 457 839 84 124 285 396 343 465 l21 25 -7 -65 c-10
-101 -24 -535 -25 -740 0 -186 -11 -345 -31 -475 -12 -75 -43 -219 -54 -247
-5 -13 -2 -18 9 -18 19 0 42 49 80 170 61 191 96 440 116 825 21 398 65 612
162 785 64 114 257 356 271 339 2 -2 70 -200 150 -439 153 -455 176 -544 227
-855 17 -104 85 -458 150 -785 128 -638 168 -862 255 -1425 81 -522 114 -713
130 -752 11 -25 15 -75 15 -175 0 -115 4 -157 24 -236 14 -53 32 -139 41 -191
9 -52 34 -162 55 -245 21 -83 50 -212 65 -286 14 -74 31 -138 38 -142 23 -15
47 -9 47 12 0 11 22 106 50 212 76 297 120 504 120 565 0 165 90 811 141 1012
36 142 38 156 24 178 -14 21 -12 79 20 610 34 566 71 1131 82 1260 l6 62 76
-101 c42 -55 81 -108 88 -117 8 -11 15 -112 22 -311 6 -181 16 -326 26 -375
36 -191 123 -386 320 -715 142 -237 260 -464 289 -555 23 -73 42 -97 52 -71
15 39 -74 273 -258 676 -90 197 -141 331 -176 460 -36 134 -37 342 -4 477 l23
92 87 -73 c48 -41 175 -138 282 -216 331 -242 491 -394 626 -597 112 -167 166
-294 201 -472 24 -118 23 -413 -1 -571 -34 -227 -58 -309 -198 -685 -139 -371
-188 -569 -188 -752 0 -114 10 -163 31 -163 16 0 19 8 19 54 0 216 65 403 263
753 131 230 207 391 260 553 80 239 113 469 104 707 -3 79 -4 143 -2 143 8 0
289 -168 365 -218 112 -75 256 -219 298 -299 75 -142 92 -230 101 -515 7 -228
14 -269 42 -241 18 18 14 386 -6 517 -40 266 -141 464 -334 655 -41 41 -151
135 -245 209 -292 232 -285 224 -360 375 -66 134 -227 389 -358 565 -136 185
-263 328 -498 562 -405 404 -493 519 -786 1030 l-88 154 22 296 c38 496 102
1245 122 1437 25 235 48 291 129 313 75 20 226 -32 337 -115 27 -21 128 -118
224 -215 108 -110 191 -186 217 -199 87 -43 152 -18 249 98 91 108 86 107 218
50 187 -82 234 -71 353 84 179 234 244 323 262 362 27 58 33 137 21 258 -19
191 -81 360 -179 488 -125 166 -760 744 -892 814 -80 42 -282 200 -381 299
-100 99 -161 187 -233 331 -142 284 -350 929 -434 1343 -60 296 -86 527 -96
862 -3 107 -13 339 -23 515 -26 495 -22 1062 11 1630 14 253 32 564 39 690 17
296 17 1223 1 1555 -7 140 -20 491 -28 780 -8 289 -16 558 -18 599 l-4 73 48
20 49 21 0 106 c0 58 14 307 30 553 l31 448 -21 66 c-11 36 -20 74 -20 84 0
10 22 54 49 97 27 43 74 124 105 180 109 196 176 266 337 349 136 71 148 96
109 244 -11 41 -20 92 -20 113 0 69 -20 125 -56 157 -35 30 -81 46 -219 75
-71 15 -84 22 -122 60 -89 93 -134 230 -140 431 -6 154 10 249 59 350 20 42
29 50 68 62 68 20 204 11 258 -17 58 -29 115 -83 154 -142 17 -27 38 -49 47
-49 33 0 663 111 856 150 110 23 445 95 745 161 670 148 798 174 925 189 199
22 304 43 546 105 l246 63 119 -72 c139 -83 245 -128 364 -152 72 -14 121 -16
321 -11 357 8 492 -8 636 -78 78 -39 174 -125 208 -188 19 -35 38 -47 49 -29
10 17 -62 140 -117 199 -108 115 -182 153 -425 214 -146 36 -353 119 -550 218
l-56 28 74 17 c132 31 311 66 485 96 388 68 521 81 1000 100 272 11 310 16
690 90 141 27 308 59 373 69 234 40 1060 137 2422 286 387 42 497 78 705 229
11 8 92 31 180 51 236 54 463 118 699 196 214 70 256 89 256 114 0 25 -29 31
-103 23 -75 -8 -188 1 -349 27 -51 8 -140 19 -198 25 -58 6 -199 25 -315 42
-203 31 -221 32 -540 33 -181 0 -449 -6 -595 -14 l-265 -14 -101 47 c-117 53
-140 55 -274 24 -138 -32 -444 -31 -735 1 -115 13 -286 24 -380 26 -93 1 -183
7 -200 13 -89 32 -293 56 -500 58 -115 1 -381 14 -590 28 -1110 77 -1539 108
-1820 132 -295 25 -320 26 -510 14 -325 -21 -840 1 -840 35 0 6 34 62 76 125
93 141 318 508 424 689 137 237 185 359 185 475 0 43 -3 56 -15 56 -10 0 -15
-10 -15 -30 0 -47 -33 -132 -78 -196 -62 -92 -329 -345 -507 -481 -87 -67
-161 -121 -163 -119 -2 2 8 42 22 87 38 127 84 316 108 447 21 109 22 149 23
572 2 549 7 595 111 858 135 341 283 542 462 628 58 28 81 44 81 58 2 53 -206
-32 -324 -132 -90 -76 -182 -186 -289 -345 -146 -216 -234 -418 -271 -622 -24
-126 -23 -125 -47 -85 -12 19 -61 96 -108 170 -109 170 -158 261 -205 378 -37
94 -78 260 -90 365 -10 92 -25 66 -25 -47 0 -231 60 -445 229 -818 121 -269
166 -465 164 -723 -1 -156 -2 -163 -38 -275 -119 -369 -361 -975 -409 -1027
-6 -7 -81 -27 -166 -44 -139 -29 -174 -33 -330 -33 -130 -1 -194 3 -250 16
-41 9 -140 24 -220 33 -188 20 -264 36 -380 78 -125 45 -254 82 -392 111 -97
21 -130 24 -238 19 -145 -6 -223 8 -321 57 -113 57 -186 147 -209 258 -14 63
0 145 36 219 34 69 122 181 169 215 37 26 40 33 76 165 21 76 92 302 157 503
66 201 131 417 146 480 16 63 52 190 82 282 29 91 98 348 153 570 55 221 118
459 141 527 22 68 40 125 40 126 0 2 -7 5 -15 9 -11 4 -36 -25 -87 -102 -161
-241 -478 -654 -578 -752 -90 -89 -273 -293 -330 -370 -23 -30 -55 -84 -71
-120 -70 -149 -87 -178 -149 -244 -36 -38 -86 -83 -113 -101 -34 -23 -55 -48
-77 -91 -93 -185 -315 -351 -575 -430 -79 -25 -107 -28 -230 -28 -139 -1 -141
-1 -207 32 -82 40 -154 111 -170 166 -13 48 -16 153 -5 213 l7 42 -108 114
c-160 168 -222 278 -271 478 -12 46 -43 129 -70 184 l-49 100 -6 130 c-6 148
7 376 30 509 22 129 54 255 139 536 127 424 159 621 137 833 -13 122 -31 198
-49 204 -8 3 -9 -36 -6 -141 9 -231 -18 -352 -132 -581 -35 -71 -112 -204
-171 -295 -59 -91 -130 -202 -158 -247 -28 -46 -54 -83 -58 -83 -17 0 -62 152
-142 485 -16 64 -55 177 -95 271 -45 106 -73 187 -81 235 -53 327 -130 510
-284 676 -35 38 -73 97 -110 171 -106 211 -222 391 -332 516 -47 52 -85 61
-105 24z"/>
<path d="M56862 23066 c-192 -289 -272 -617 -259 -1055 17 -575 199 -1195 592
-2016 204 -427 339 -724 331 -732 -6 -6 -188 199 -283 317 -110 138 -175 234
-318 470 -187 309 -279 442 -401 577 -80 89 -206 191 -293 237 -72 37 -207 86
-240 86 -27 0 -27 -20 -1 -27 36 -10 159 -71 205 -103 123 -85 229 -198 340
-365 94 -140 173 -294 325 -625 129 -283 213 -444 346 -661 138 -225 400 -595
512 -723 30 -34 54 -72 57 -90 3 -17 25 -155 50 -306 61 -376 102 -530 188
-708 27 -56 28 -46 -15 -287 -54 -310 -101 -463 -224 -727 -158 -342 -315
-594 -432 -694 l-24 -22 22 -188 c17 -148 23 -266 27 -544 l5 -355 -42 -84
c-38 -75 -63 -105 -230 -275 -163 -167 -189 -198 -204 -244 -11 -33 -15 -63
-11 -83 13 -59 119 -290 358 -784 217 -448 244 -573 307 -1375 17 -217 44
-535 60 -707 17 -171 30 -339 30 -373 0 -100 -47 -246 -171 -537 -88 -206
-122 -299 -144 -393 -10 -41 -28 -97 -40 -125 -45 -99 -41 -189 10 -233 27
-23 28 -30 25 -137 -4 -194 34 -592 80 -825 l28 -145 -8 -550 c-10 -601 -10
-604 -83 -980 -38 -195 -51 -291 -67 -515 -20 -282 -40 -399 -150 -890 -31
-135 -43 -216 -47 -300 -5 -115 8 -255 25 -272 9 -9 272 223 593 523 374 350
622 553 912 748 62 41 116 86 127 104 l20 32 0 -155 0 -155 -28 -20 c-16 -11
-66 -63 -111 -115 -106 -121 -163 -171 -451 -392 -384 -296 -466 -372 -609
-565 -355 -476 -611 -1142 -661 -1713 -15 -171 -13 -229 6 -237 23 -8 34 14
34 71 0 124 53 386 116 581 58 177 116 311 260 595 192 382 331 584 487 706
90 70 271 159 522 254 105 40 234 95 288 121 53 27 97 47 97 44 0 -25 -122
-266 -244 -483 -168 -299 -250 -466 -297 -600 -26 -76 -30 -95 -19 -102 8 -5
17 -7 22 -4 4 2 27 47 52 99 64 135 157 285 303 491 376 529 474 713 553 1034
15 64 36 174 45 245 10 72 19 137 22 145 6 22 89 -124 115 -204 33 -103 29
-207 -16 -432 -19 -100 -40 -223 -47 -275 -13 -106 -6 -279 12 -290 29 -18 36
3 41 124 6 136 20 198 103 464 127 405 125 529 -16 924 -85 236 -83 228 -55
290 37 84 73 205 90 305 22 128 63 235 157 409 44 83 100 188 124 235 24 47
71 117 105 155 72 81 123 169 140 240 21 91 120 326 244 585 68 140 140 295
161 343 46 107 143 257 191 294 19 16 72 78 118 138 75 99 117 177 431 800
475 942 618 1217 680 1305 52 76 205 321 391 630 l99 165 1 110 c1 129 12 163
100 316 61 107 247 521 283 629 24 75 35 93 114 188 68 82 94 151 207 540 38
130 83 275 100 322 40 110 120 277 159 334 27 39 137 353 127 363 -2 2 -54
-53 -116 -122 -148 -164 -459 -445 -588 -530 -21 -14 -57 -51 -78 -83 -109
-158 -302 -373 -485 -538 -106 -96 -139 -133 -186 -208 -31 -50 -84 -131 -117
-181 -33 -49 -75 -125 -93 -168 -96 -229 -238 -459 -395 -642 -83 -97 -213
-222 -277 -267 -44 -31 -61 -84 -61 -188 0 -85 -3 -103 -27 -151 -17 -33 -45
-67 -72 -87 -28 -21 -60 -60 -85 -105 -95 -166 -286 -425 -401 -547 -24 -25
-66 -85 -94 -134 -109 -191 -259 -367 -382 -448 -67 -45 -115 -106 -202 -258
-153 -267 -247 -376 -347 -400 -32 -8 -63 -26 -103 -63 -57 -51 -58 -54 -122
-231 -78 -215 -133 -354 -151 -381 -20 -30 -73 -60 -79 -43 -10 32 -56 342
-61 423 -12 171 21 352 131 715 84 276 88 297 88 455 0 106 -5 163 -21 235
-63 286 -61 259 -77 760 -17 521 -29 731 -44 830 -6 36 -8 117 -5 180 9 164
-11 517 -46 828 -36 321 -36 328 -10 342 11 6 20 17 20 24 0 14 46 19 435 51
99 8 290 18 425 21 231 6 250 8 335 34 50 15 155 42 235 59 178 39 270 66 470
141 85 32 182 63 215 70 33 6 67 13 75 16 8 3 -45 36 -125 78 -77 39 -200 111
-273 159 l-133 87 -74 0 c-107 0 -274 24 -517 74 -117 25 -258 51 -313 60 -55
8 -210 42 -345 75 -135 32 -271 65 -302 72 -88 19 -86 14 -59 126 43 183 138
379 271 565 l70 97 0 95 c0 103 -22 227 -46 264 -39 59 -43 425 -7 547 22 74
23 337 3 855 -15 378 -12 409 44 532 19 40 51 127 71 193 44 141 65 185 101
214 37 29 71 26 150 -14 76 -38 282 -190 322 -237 14 -17 46 -39 71 -50 55
-23 106 -69 132 -120 10 -20 32 -88 49 -150 44 -161 127 -428 237 -763 93
-282 97 -291 145 -345 147 -164 327 -532 412 -843 33 -121 37 -129 107 -219
113 -147 115 -148 173 -148 28 0 105 7 171 15 150 19 337 19 580 0 294 -23
604 -29 895 -16 328 14 543 36 590 60 19 10 127 65 240 123 113 58 251 125
308 149 56 24 102 46 102 49 0 6 -328 104 -555 165 -71 19 -317 80 -545 136
-455 110 -491 123 -606 222 -110 93 -386 418 -482 567 -30 47 -87 135 -127
195 -103 158 -135 220 -232 437 -122 274 -134 319 -140 506 l-6 153 -39 47
c-59 72 -71 126 -73 342 -1 105 -7 207 -14 235 -34 138 -32 392 3 578 18 96 7
300 -18 325 -18 18 -22 17 -162 -42 -119 -50 -175 -59 -379 -60 l-190 -1 -165
57 c-91 31 -274 86 -408 123 -494 134 -761 243 -945 383 -132 100 -396 422
-463 564 -18 39 -35 51 -58 42 -8 -3 -50 -92 -94 -197 -77 -186 -81 -196 -96
-327 -9 -74 -23 -229 -32 -345 -8 -115 -22 -262 -30 -325 -18 -139 -63 -372
-73 -383 -11 -12 -135 244 -171 353 -94 285 -117 491 -130 1165 -10 500 -20
619 -65 799 -58 225 -167 406 -306 501 -51 36 -64 24 -17 -15 122 -101 215
-300 249 -533 17 -115 14 -431 -5 -627 -25 -252 -44 -498 -52 -673 -4 -87 -10
-154 -15 -150 -19 20 -201 313 -287 463 -115 200 -293 561 -357 725 -144 366
-204 633 -212 940 -9 307 27 485 142 722 36 73 65 135 65 138 0 3 -8 5 -18 5
-12 0 -40 -33 -80 -94z"/>
<path d="M14600 22908 c-59 -16 -55 -27 8 -21 53 5 68 2 124 -24 122 -58 236
-177 390 -412 149 -227 242 -449 302 -721 50 -228 58 -333 60 -775 1 -409 1
-410 29 -538 63 -286 147 -526 245 -697 l48 -84 -34 -201 c-19 -115 -44 -226
-58 -262 -20 -49 -26 -87 -30 -180 -5 -112 -4 -125 30 -258 28 -107 36 -160
36 -226 0 -129 38 -667 56 -796 9 -62 13 -116 10 -121 -3 -5 12 -99 34 -209
94 -483 108 -666 86 -1146 -17 -388 -22 -336 46 -514 17 -46 22 -79 22 -163 0
-114 -17 -193 -79 -358 l-32 -87 -59 0 c-57 0 -66 4 -235 103 -97 56 -192 107
-210 112 -71 21 -166 5 -198 -33 -6 -8 18 -109 74 -302 134 -469 239 -743 347
-907 71 -109 89 -150 90 -206 0 -45 -22 -82 -49 -82 -39 0 -16 -60 122 -310
39 -70 80 -164 105 -240 44 -135 73 -191 127 -251 38 -42 69 -138 98 -299 22
-117 40 -509 40 -845 0 -319 -4 -344 -80 -475 -53 -92 -65 -134 -65 -230 0
-94 30 -183 159 -474 86 -191 94 -216 107 -310 16 -127 56 -240 122 -342 76
-119 99 -209 147 -569 29 -217 42 -278 90 -425 56 -176 76 -301 155 -1004 55
-484 93 -712 191 -1131 43 -183 38 -172 194 -440 54 -93 140 -253 191 -355 51
-102 95 -178 97 -170 3 8 12 76 21 152 26 227 81 454 157 648 21 54 35 117 49
230 36 281 70 416 123 493 10 15 43 123 73 240 47 182 57 236 68 377 l13 165
82 195 c46 107 112 265 148 350 96 230 205 442 337 655 189 305 255 460 294
681 22 120 41 167 127 299 74 116 75 118 96 219 10 50 37 148 59 218 28 87 43
160 50 228 36 379 177 900 351 1302 62 143 99 265 99 327 0 69 -31 223 -101
514 -59 242 -71 306 -70 372 0 110 -13 216 -60 453 -49 252 -61 330 -149 937
-82 565 -114 763 -169 1038 -33 163 -38 202 -29 223 17 36 -1 132 -56 296 -49
149 -89 235 -180 382 -35 56 -93 155 -130 221 -93 164 -165 262 -260 353 -104
99 -160 130 -212 116 -62 -15 -62 -25 -4 -179 115 -307 168 -491 235 -825 94
-464 107 -568 86 -670 -7 -35 -12 -227 -15 -540 -4 -599 -21 -1154 -41 -1303
-9 -62 -20 -146 -26 -187 -5 -41 -14 -226 -19 -410 -14 -532 -49 -718 -229
-1220 -115 -321 -294 -773 -317 -799 -10 -11 -87 57 -101 88 -104 243 -287
752 -307 856 -3 17 -10 149 -16 295 -6 146 -20 362 -31 480 -19 191 -21 248
-14 510 15 575 20 936 14 1021 -3 47 -16 116 -29 153 -22 67 -22 77 -17 350 7
348 28 518 98 782 57 217 30 306 -120 393 -123 72 -179 158 -206 319 -8 48
-33 234 -55 414 -45 370 -59 462 -100 668 -38 190 -58 387 -65 645 -3 116 -10
343 -17 505 -13 331 -4 468 51 791 27 159 27 170 13 230 -22 95 -21 446 2 614
41 301 127 705 237 1108 l71 259 -23 61 -23 61 -17 -25 c-10 -13 -55 -76 -100
-139 -192 -269 -454 -592 -629 -773 -86 -90 -116 -129 -150 -197 -23 -47 -96
-178 -161 -293 -120 -209 -167 -305 -211 -429 -12 -38 -26 -68 -29 -68 -12 0
-56 133 -89 265 -27 108 -32 141 -27 204 8 120 52 295 147 586 48 149 94 304
101 345 19 107 16 371 -5 510 -22 148 -85 442 -97 454 -5 5 -11 7 -14 4 -3 -3
-1 -84 6 -179 18 -282 -2 -546 -57 -749 -25 -94 -140 -418 -154 -433 -3 -4
-12 28 -19 72 -29 192 -137 556 -228 771 -118 278 -278 515 -476 707 -109 106
-187 159 -270 185 -65 20 -85 21 -137 6z"/>
<path d="M22204 22316 c-3 -7 11 -74 30 -147 19 -74 44 -187 56 -252 11 -64
36 -163 56 -220 20 -56 47 -151 60 -212 51 -242 128 -382 281 -510 36 -30 72
-72 91 -105 17 -31 88 -137 159 -236 260 -364 294 -435 442 -925 27 -91 74
-219 105 -285 88 -193 103 -321 70 -602 -19 -163 -15 -473 11 -702 11 -100 15
-221 14 -390 -1 -211 1 -259 19 -350 37 -190 37 -226 3 -435 -16 -105 -47
-320 -67 -480 -34 -273 -38 -292 -63 -325 -26 -34 -123 -252 -230 -523 -47
-116 -50 -131 -42 -170 5 -23 24 -143 41 -267 40 -293 80 -521 140 -805 67
-317 73 -370 67 -548 -6 -182 -22 -246 -107 -427 -69 -148 -106 -252 -159
-444 -69 -252 -73 -374 -15 -536 24 -69 27 -91 31 -272 6 -212 -1 -290 -47
-588 -15 -102 -33 -225 -39 -275 -21 -173 -82 -972 -90 -1170 -6 -150 -12
-210 -24 -239 -26 -60 -36 -144 -25 -211 13 -83 61 -217 103 -288 20 -33 115
-252 211 -485 347 -840 468 -1086 667 -1350 70 -94 196 -236 203 -229 2 2 -10
84 -26 183 -76 458 -119 895 -127 1304 -11 530 21 796 187 1570 34 160 50 260
55 345 28 523 109 1026 199 1246 7 19 17 65 21 102 18 173 89 331 200 442 81
82 160 127 268 154 42 10 89 28 106 40 71 51 143 75 221 75 68 1 82 -3 150
-38 103 -52 152 -90 251 -193 177 -184 295 -413 375 -727 14 -56 59 -204 99
-331 188 -590 229 -740 285 -1049 23 -124 71 -333 110 -476 141 -521 173 -680
188 -946 7 -115 11 -136 35 -180 124 -222 160 -350 217 -769 16 -121 57 -353
90 -515 33 -162 74 -378 90 -480 40 -256 47 -276 127 -360 36 -39 74 -70 83
-70 14 0 29 26 60 107 75 195 178 528 215 696 l6 28 61 -48 c33 -26 115 -105
182 -175 111 -115 124 -132 145 -195 13 -37 32 -86 42 -109 30 -64 42 -150 34
-245 -19 -245 88 -570 242 -738 46 -51 53 -55 67 -41 14 14 11 23 -37 92 -65
93 -110 189 -138 294 -17 63 -22 110 -23 229 -1 139 16 295 32 295 13 -1 197
-151 260 -213 210 -205 312 -494 312 -884 0 -163 -18 -331 -51 -491 -22 -105
-19 -132 14 -119 17 7 58 168 84 332 24 152 24 474 0 602 -55 295 -152 489
-367 733 -138 157 -270 334 -362 487 -43 70 -80 136 -84 145 -11 32 151 -28
396 -147 282 -137 515 -238 538 -233 41 8 21 36 -63 88 -48 29 -159 104 -248
168 -282 201 -397 272 -604 374 -110 54 -205 104 -210 111 -18 23 -81 173
-116 274 l-36 101 0 219 c0 198 -14 465 -41 773 -5 63 -16 215 -25 337 l-15
222 -35 58 c-94 156 -145 431 -180 988 -8 132 -26 348 -40 480 -47 466 -55
825 -25 1127 8 86 6 115 -20 284 -17 103 -46 254 -65 335 -74 307 -73 472 2
759 64 244 75 314 70 435 -8 176 -62 299 -192 435 -77 81 -109 128 -172 255
-131 262 -246 606 -359 1074 -74 304 -86 389 -82 597 l3 181 -28 39 c-15 21
-47 63 -70 92 -95 115 -189 304 -240 483 -84 286 -107 756 -63 1266 l12 151
128 214 c151 252 252 453 300 598 19 58 65 220 101 360 85 328 121 435 199
595 70 142 143 239 222 297 102 74 220 118 319 118 64 0 84 12 65 35 -12 15
-30 17 -130 12 -187 -7 -310 -60 -440 -189 -133 -131 -224 -294 -380 -677 -50
-124 -108 -261 -130 -305 l-38 -81 -1 130 c-1 72 -6 171 -11 220 -33 294 -121
652 -204 826 -31 65 -46 81 -66 69 -11 -7 -7 -21 22 -77 81 -154 117 -329 125
-609 8 -282 -18 -456 -92 -612 l-35 -74 -42 52 c-24 29 -49 62 -57 74 -35 51
-220 336 -250 384 -18 28 -36 52 -40 52 -12 0 -38 -33 -45 -55 -3 -11 -17
-101 -31 -200 -14 -99 -30 -196 -34 -215 -5 -19 -14 -96 -21 -170 -6 -74 -12
-144 -13 -155 -1 -10 -17 -30 -36 -42 -121 -82 -231 -29 -286 138 -16 46 -47
124 -71 175 -55 120 -74 184 -74 255 0 49 -19 107 -136 415 -150 397 -162 424
-207 473 -49 51 -130 103 -138 88 -3 -6 -9 -56 -13 -111 -4 -55 -13 -111 -22
-127 -15 -30 -68 -69 -93 -69 -8 0 -62 31 -120 68 -58 38 -254 144 -434 235
-454 231 -565 297 -810 479 -116 87 -241 179 -277 206 -36 26 -74 63 -85 81
-46 76 -233 353 -298 441 -72 98 -226 260 -246 260 -6 0 -14 -6 -17 -14z
m2761 -4967 c191 -426 338 -819 430 -1151 94 -340 188 -816 220 -1121 19 -186
36 -671 25 -720 -16 -72 -62 -115 -145 -138 -31 -9 -60 -8 -135 5 -96 17 -321
69 -462 107 l-77 21 -41 75 c-22 41 -40 81 -40 88 0 34 -67 211 -122 321 l-60
122 26 143 c76 420 119 975 94 1215 -11 108 -11 114 12 165 20 46 24 79 31
214 9 185 13 211 80 565 60 320 59 313 64 308 3 -2 48 -101 100 -219z"/>
<path d="M19042 22176 c-31 -35 -51 -68 -178 -296 -117 -208 -163 -340 -184
-535 -7 -55 -20 -152 -31 -215 -30 -181 -42 -386 -35 -585 4 -99 9 -256 12
-348 5 -135 3 -189 -11 -278 -32 -197 -4 -550 70 -889 20 -89 40 -210 46 -269
36 -375 79 -517 284 -941 110 -226 118 -250 134 -395 8 -67 29 -142 82 -295
231 -666 224 -642 284 -980 14 -80 42 -208 62 -285 35 -137 36 -145 43 -400 4
-148 13 -283 20 -314 17 -75 8 -145 -31 -232 -30 -67 -33 -83 -33 -169 0 -84
5 -113 48 -255 46 -155 102 -303 185 -493 78 -176 129 -407 152 -682 15 -181
16 -648 1 -790 -6 -63 -16 -191 -22 -285 -24 -380 -89 -671 -216 -976 -25 -58
-58 -127 -74 -152 -33 -52 -133 -131 -283 -221 -54 -33 -100 -63 -103 -68 -3
-4 -19 -79 -36 -165 -26 -137 -31 -185 -33 -358 -3 -175 -1 -209 17 -280 16
-63 21 -124 25 -280 8 -318 -33 -587 -152 -1000 -110 -381 -165 -529 -361
-971 -30 -67 -54 -129 -54 -137 0 -9 -14 -69 -30 -133 -50 -194 -141 -359
-277 -505 -48 -51 -47 -56 20 -84 124 -52 308 28 552 240 55 48 223 180 374
293 150 114 318 244 373 290 88 74 101 82 116 70 79 -65 113 -102 149 -165 84
-149 160 -240 404 -488 135 -137 260 -269 277 -293 l30 -43 -135 -225 c-140
-236 -259 -463 -313 -599 -47 -117 -81 -226 -74 -236 11 -18 35 -8 44 17 65
170 138 304 309 566 67 104 145 229 173 279 50 88 52 90 65 66 45 -88 91 -320
100 -508 17 -377 -91 -745 -314 -1068 -43 -62 -61 -97 -55 -103 15 -15 25 -6
106 102 227 301 352 627 386 1003 23 249 -29 556 -126 750 -16 31 -22 55 -18
72 7 28 -12 59 -32 51 -7 -3 -24 14 -39 39 -33 58 -124 172 -224 281 -44 49
-78 90 -77 92 5 4 154 -34 236 -60 282 -90 538 -322 688 -623 75 -152 114
-281 141 -470 13 -91 20 -120 31 -120 23 0 18 233 -9 357 -77 364 -266 647
-610 912 -87 67 -166 106 -356 176 -166 62 -220 88 -300 145 -100 72 -139 120
-178 220 -19 50 -37 99 -39 109 -2 15 59 66 272 228 423 321 379 278 595 583
262 369 274 385 322 418 37 27 52 30 151 37 93 6 118 11 155 33 56 33 92 81
132 176 61 145 137 277 235 411 27 36 66 107 88 158 80 186 175 311 345 454
125 105 172 158 264 288 172 244 205 349 233 725 12 167 32 320 122 950 70
490 75 587 39 694 -25 71 -83 166 -112 181 -16 9 -20 5 -30 -32 -17 -66 -87
-303 -119 -404 -16 -50 -82 -210 -148 -355 -65 -145 -147 -329 -182 -409 -246
-572 -461 -923 -718 -1172 -115 -111 -278 -225 -297 -206 -2 1 -47 80 -101
173 -53 94 -117 198 -141 232 l-45 63 8 372 7 372 38 80 c21 45 50 122 66 171
25 82 28 104 28 250 1 178 7 209 38 201 11 -3 33 2 49 10 l28 15 -20 39 c-30
59 -26 118 14 198 37 74 70 117 256 338 274 327 419 479 580 609 78 63 104 91
147 161 28 46 77 117 107 158 31 40 56 76 56 80 0 12 -56 6 -175 -19 -204 -43
-312 -42 -398 2 -25 13 -45 10 -240 -37 -182 -45 -223 -51 -290 -48 -76 3 -80
5 -112 40 -19 20 -38 53 -44 75 -14 50 -46 358 -66 648 -23 324 -31 344 -152
410 -80 43 -90 61 -107 195 -35 273 -40 431 -21 691 19 258 16 389 -10 559
-23 150 -32 136 93 144 124 8 269 -6 347 -33 96 -34 229 -138 316 -247 l51
-64 57 0 c69 0 123 -30 190 -106 59 -67 135 -228 160 -339 68 -300 44 -728
-65 -1193 -22 -96 -32 -192 -19 -192 9 0 274 143 320 172 33 20 49 44 92 129
108 217 227 559 298 853 44 184 80 276 125 324 22 23 22 24 6 105 -25 130 -34
200 -51 392 -8 99 -17 202 -20 228 -2 26 0 86 6 132 10 78 9 87 -9 112 -63 90
-139 285 -174 446 -17 81 -21 137 -22 272 0 187 13 274 65 421 28 79 28 83 13
125 -9 26 -15 78 -15 129 -1 71 -11 127 -64 336 -83 325 -102 433 -115 636
-25 398 -91 599 -274 828 -92 115 -154 179 -142 145 38 -104 49 -364 21 -525
-22 -129 -68 -301 -116 -430 -28 -77 -39 -123 -39 -163 0 -95 -101 -302 -221
-452 -71 -89 -210 -223 -282 -270 -79 -53 -214 -97 -313 -102 -68 -5 -94 -1
-170 22 -49 15 -95 32 -103 38 -20 17 -9 252 23 467 15 96 35 247 46 335 21
172 42 517 33 541 -3 8 -13 14 -21 12 -12 -2 -19 -24 -28 -88 -28 -204 -73
-316 -278 -689 l-85 -154 -86 174 c-171 349 -228 627 -204 1014 18 309 83 491
222 628 57 56 67 70 57 82 -19 23 -99 -25 -171 -103 -138 -147 -285 -556 -330
-915 -26 -215 1 -589 60 -817 10 -41 18 -76 17 -77 -1 -1 -24 14 -52 33 -58
42 -139 84 -210 109 -80 28 -126 64 -153 120 -35 73 -169 398 -231 559 -52
136 -53 139 -41 192 16 70 -2 178 -69 415 -110 385 -145 660 -169 1319 -7 191
-12 244 -28 285 -24 64 -48 70 -91 21z"/>
<path d="M55249 21535 c-18 -18 52 -542 121 -905 11 -58 42 -222 69 -365 28
-143 64 -341 81 -440 18 -99 42 -225 56 -280 47 -195 66 -387 84 -835 17 -428
45 -820 77 -1080 24 -195 22 -486 -5 -722 -12 -103 -29 -299 -37 -435 -17
-273 -35 -428 -66 -573 -43 -196 -122 -398 -215 -547 -54 -86 -71 -133 -80
-215 -27 -259 -118 -410 -304 -503 -88 -44 -115 -66 -142 -119 -38 -74 -25
-125 84 -346 53 -107 134 -259 181 -336 209 -345 281 -535 332 -863 33 -212
39 -235 73 -256 91 -58 125 -162 142 -428 12 -195 2 -439 -35 -802 -77 -762
-196 -1377 -303 -1569 -34 -62 -92 -96 -164 -96 -68 0 -106 19 -162 81 -170
189 -337 547 -410 881 -60 269 -87 636 -68 903 11 159 56 440 92 585 10 41 21
120 25 175 3 55 11 139 16 188 l11 87 -46 51 c-25 28 -67 85 -93 127 -25 43
-83 133 -128 202 -100 151 -126 197 -158 275 -30 71 -87 322 -121 532 -21 129
-30 159 -65 223 -74 139 -104 269 -122 531 -21 308 6 567 131 1259 98 544 91
487 62 543 -14 26 -28 44 -32 40 -21 -25 -230 -371 -300 -498 -243 -437 -392
-808 -499 -1244 -94 -380 -116 -448 -166 -516 -20 -27 -22 -37 -15 -90 5 -33
9 -88 9 -122 1 -58 5 -68 56 -147 124 -190 199 -418 236 -711 17 -139 14 -534
-5 -740 -25 -258 -34 -314 -67 -385 -17 -36 -46 -119 -65 -184 -19 -65 -43
-135 -53 -155 -13 -25 -22 -76 -30 -171 -6 -74 -20 -173 -31 -220 -11 -47 -29
-132 -41 -190 -19 -98 -20 -106 -4 -115 117 -69 134 -90 268 -332 53 -95 111
-197 130 -226 19 -29 38 -64 42 -78 4 -13 56 -157 115 -319 59 -162 113 -314
119 -337 14 -51 0 -231 -30 -377 -23 -117 -105 -365 -181 -551 l-53 -129 -127
-116 c-69 -63 -194 -171 -276 -239 -147 -122 -150 -124 -203 -126 -30 -2 -115
-18 -189 -35 l-135 -33 -259 2 c-142 1 -268 4 -280 7 -35 8 -301 -14 -374 -32
-102 -25 -205 -78 -262 -135 -74 -74 -65 -113 11 -44 125 113 303 138 682 94
100 -11 276 -24 391 -27 l210 -7 -95 -82 c-232 -200 -376 -385 -500 -638 -141
-290 -220 -628 -238 -1019 -8 -180 -5 -248 10 -196 4 14 7 52 8 85 2 93 29
306 56 441 36 179 98 358 181 524 149 296 342 497 746 777 396 275 480 333
483 333 1 0 -8 -34 -21 -75 -36 -114 -82 -298 -107 -425 -19 -98 -22 -148 -22
-340 1 -207 3 -236 28 -353 34 -159 107 -381 181 -552 63 -147 74 -161 99
-143 15 12 14 21 -21 113 -154 405 -184 781 -91 1125 39 145 116 286 288 530
174 246 222 323 317 514 51 103 96 182 98 175 7 -20 32 -152 60 -311 17 -98
33 -154 56 -201 l31 -64 82 -19 c109 -25 261 -88 378 -157 285 -167 742 -575
949 -846 52 -68 163 -209 246 -311 402 -498 560 -720 720 -1018 51 -94 72
-124 91 -128 13 -4 26 -4 29 -1 9 8 42 185 60 316 13 95 17 193 17 401 -1 453
-29 780 -91 1060 l-36 165 -1 350 c-1 193 -7 409 -13 480 -30 335 -4 985 59
1475 34 269 124 753 194 1045 13 55 29 161 35 235 18 218 40 352 105 635 70
302 85 404 69 483 -5 23 -16 34 -46 48 -140 63 -288 327 -369 659 -35 142 -62
325 -85 565 -19 200 -34 1239 -22 1565 17 501 102 915 331 1620 41 127 84 277
96 335 11 58 29 129 39 159 l18 55 -37 64 c-75 127 -129 294 -149 457 -23 182
-60 348 -90 400 -98 173 -227 537 -375 1055 -150 527 -201 663 -285 760 -66
76 -338 451 -429 589 -41 63 -128 219 -194 345 -189 365 -278 506 -321 506
-12 0 -25 -2 -27 -5z"/>
<path d="M45890 21398 c0 -7 12 -49 27 -93 36 -110 38 -272 5 -390 -32 -113
-111 -272 -237 -475 -168 -272 -218 -374 -261 -525 l-17 -60 -14 40 c-26 75
-62 280 -77 443 -9 89 -23 235 -32 325 -20 219 -52 358 -108 471 -82 167 -145
217 -280 224 -55 3 -101 -1 -144 -12 -93 -25 -172 -62 -172 -82 0 -11 5 -14
18 -9 142 55 265 66 336 31 90 -45 150 -142 183 -297 20 -96 25 -422 9 -704
-10 -182 -6 -181 -77 -8 -78 191 -118 370 -126 566 -5 96 -9 127 -19 127 -24
0 -29 -50 -29 -260 0 -174 3 -222 23 -317 44 -217 157 -530 242 -668 23 -38
52 -99 65 -135 44 -129 128 -321 176 -406 28 -47 48 -92 45 -99 -10 -27 -286
-178 -426 -233 -36 -15 -60 -32 -71 -51 -21 -37 -167 -133 -267 -176 -44 -19
-124 -47 -178 -62 -84 -23 -119 -27 -229 -28 -124 0 -132 1 -179 28 -41 23
-52 25 -63 15 -25 -25 49 -256 191 -598 139 -332 167 -433 147 -520 -10 -42
-8 -50 29 -125 57 -118 73 -206 73 -415 0 -359 -70 -667 -184 -811 -38 -48
-100 -86 -156 -95 -48 -7 -53 -17 -53 -115 0 -96 -35 -160 -167 -300 -125
-134 -177 -210 -194 -284 l-12 -54 99 -103 c158 -165 381 -474 461 -639 52
-108 71 -167 82 -259 16 -132 -10 -209 -83 -244 -19 -9 -38 -16 -43 -16 -6 0
-6 -26 -2 -62 15 -122 31 -635 26 -788 -10 -260 -62 -454 -197 -726 -90 -182
-117 -270 -127 -415 -8 -134 21 -359 46 -347 3 2 35 18 71 37 61 32 71 34 165
35 78 0 117 -5 175 -23 278 -86 587 -338 822 -671 120 -170 245 -443 292 -639
15 -61 28 -97 37 -98 8 -1 37 26 64 60 61 74 156 149 216 170 152 53 147 52
245 27 117 -31 195 -70 262 -133 131 -123 217 -319 259 -589 13 -85 17 -177
18 -371 0 -249 1 -257 18 -236 30 37 116 181 261 434 75 132 156 267 181 299
l44 60 0 200 c-1 306 56 713 160 1158 l21 87 -35 112 c-29 91 -35 126 -35 197
0 106 21 247 56 383 33 128 29 187 -16 262 -82 138 -113 230 -130 387 -9 87
-44 706 -70 1235 -12 249 -29 388 -65 523 -54 204 -124 316 -212 342 -63 19
-77 10 -69 -49 9 -65 -10 -353 -35 -531 -35 -255 -130 -697 -200 -938 -17 -59
-47 -163 -65 -231 l-34 -125 30 -78 c119 -313 151 -670 78 -866 -55 -147 -215
-226 -360 -176 -85 28 -140 91 -228 257 -29 54 -32 57 -69 57 -50 0 -107 42
-158 114 -33 48 -42 55 -72 56 -122 1 -197 80 -238 248 -21 91 -20 298 5 572
l19 215 -34 72 c-56 119 -81 244 -98 488 -4 50 -13 112 -22 139 -37 115 8 223
137 333 73 61 439 279 630 375 52 26 107 58 123 72 15 14 55 69 89 123 33 54
92 143 129 198 62 92 69 107 75 167 6 59 5 66 -12 71 -35 10 -418 29 -474 24
-30 -2 -82 -15 -115 -27 -75 -28 -185 -31 -232 -7 -21 11 -56 17 -101 17 -80
0 -193 31 -223 61 -28 28 -24 77 18 225 l36 129 8 420 c4 231 12 450 18 488 5
37 7 130 4 206 -6 135 3 218 39 386 14 65 111 249 157 298 41 44 71 62 122 71
20 3 45 16 55 28 47 52 165 66 225 25 80 -54 131 -165 166 -365 14 -78 17
-159 17 -417 0 -331 -6 -412 -53 -675 -11 -58 -22 -175 -25 -261 -3 -86 -10
-169 -16 -184 -13 -34 -12 -35 23 -28 36 7 107 93 329 398 320 441 335 467
436 760 44 127 106 298 139 380 66 164 83 223 83 284 0 62 -33 150 -87 233
-59 90 -95 175 -119 284 -15 65 -18 119 -16 315 2 208 0 245 -18 315 -43 169
-53 295 -47 644 4 239 11 365 25 475 11 82 18 154 15 159 -13 21 -93 -4 -188
-59 -237 -137 -334 -220 -475 -410 -109 -145 -128 -165 -285 -294 -129 -106
-115 -114 -140 89 -29 237 -15 481 35 644 12 38 66 173 120 301 105 248 143
357 166 473 18 96 18 250 -2 332 -19 82 -73 200 -90 200 -8 0 -14 -6 -14 -12z"/>
<path d="M15002 20884 c-130 -221 -353 -484 -495 -586 -171 -121 -481 -242
-946 -368 -141 -38 -326 -93 -411 -122 l-155 -53 -195 1 c-220 1 -284 13 -431
81 -66 30 -83 34 -103 25 -21 -9 -24 -19 -30 -94 -10 -134 -9 -177 10 -283 21
-120 24 -403 5 -480 -7 -27 -16 -149 -21 -270 -9 -247 -17 -282 -79 -357 l-38
-47 -6 -153 c-3 -92 -11 -176 -21 -211 -18 -65 -140 -345 -215 -495 -86 -170
-311 -502 -466 -687 -316 -377 -353 -402 -721 -490 -642 -154 -1183 -298
-1343 -357 -65 -24 -146 -74 -179 -110 l-23 -25 33 -20 c18 -11 55 -25 83 -32
123 -31 355 -184 521 -343 154 -148 294 -339 294 -402 0 -12 14 -35 31 -52 52
-49 80 -108 86 -176 3 -39 12 -71 23 -83 42 -48 106 -156 155 -259 64 -133
106 -252 186 -526 71 -241 131 -422 152 -453 8 -12 42 -53 75 -90 50 -57 66
-83 88 -150 39 -119 211 -498 293 -645 84 -152 104 -220 95 -315 -4 -46 -2
-78 7 -100 18 -44 395 -658 484 -787 84 -122 153 -255 945 -1805 706 -1383
670 -1315 720 -1357 62 -54 81 -83 122 -196 46 -129 127 -267 212 -364 35 -40
80 -105 99 -144 20 -40 69 -132 110 -205 117 -212 150 -296 183 -468 24 -132
57 -224 138 -387 l75 -151 140 -77 c99 -53 151 -76 175 -76 51 0 78 -16 104
-60 15 -28 51 -58 120 -103 291 -193 556 -406 904 -729 322 -298 621 -559 630
-550 17 17 30 156 25 272 -4 96 -16 168 -76 430 -81 359 -103 499 -126 795
-17 228 -31 328 -69 505 -70 324 -85 528 -86 1107 l0 413 30 147 c53 269 90
723 70 879 -19 152 -67 266 -158 379 -27 33 -54 69 -59 80 -21 39 -231 631
-261 735 -38 131 -51 186 -107 485 -59 309 -92 437 -170 670 -35 105 -87 276
-115 380 -94 343 -161 515 -263 674 -45 68 -63 85 -100 92 -18 4 -19 -14 -22
-346 -2 -192 -10 -453 -19 -580 -9 -126 -20 -289 -25 -361 -7 -112 -12 -138
-31 -170 -22 -35 -24 -48 -24 -188 -1 -158 7 -203 56 -300 19 -37 19 -40 2
-102 -23 -87 -14 -186 31 -344 31 -106 38 -148 45 -280 5 -85 16 -191 24 -235
31 -164 14 -345 -49 -530 -26 -74 -43 -107 -66 -129 -31 -28 -34 -29 -111 -23
-89 7 -159 34 -181 69 -29 44 -260 655 -303 799 -13 44 -30 67 -93 129 -81 80
-125 152 -209 346 -22 50 -71 147 -109 215 -39 68 -137 252 -218 409 -81 157
-204 386 -273 510 -69 124 -145 268 -170 320 -130 279 -468 1092 -573 1376
-57 155 -222 694 -215 701 3 3 128 41 278 85 150 44 368 110 483 148 116 37
233 71 262 74 28 4 156 26 283 50 179 34 238 48 258 65 132 106 310 231 366
255 6 3 -8 22 -30 43 -51 47 -276 134 -410 158 -49 9 -109 26 -133 36 -25 11
-173 48 -330 81 -157 33 -360 83 -451 110 -91 28 -194 59 -230 70 -82 24 -238
48 -311 48 -31 0 -77 3 -103 6 l-46 7 0 43 c0 23 5 46 10 49 17 11 11 25 -17
38 -65 28 -58 58 35 153 42 44 110 123 150 177 69 90 75 103 102 204 40 154
103 315 191 493 87 175 158 287 230 361 l49 50 114 347 c62 191 137 426 166
522 28 96 62 211 75 256 33 109 68 154 151 195 36 18 75 45 86 60 28 37 240
191 323 234 97 51 144 46 184 -18 11 -19 47 -110 80 -203 32 -93 72 -198 87
-234 27 -62 28 -72 28 -210 -1 -80 -6 -262 -12 -405 -17 -368 -16 -618 3 -679
8 -27 20 -99 26 -161 15 -142 3 -302 -47 -618 -43 -277 -66 -371 -133 -542
-27 -71 -49 -130 -48 -131 1 -2 18 5 36 14 76 36 288 279 570 649 163 216 289
333 357 333 14 0 36 19 64 56 23 31 68 85 100 120 69 76 86 120 95 254 4 60
23 162 50 275 67 269 86 411 94 690 7 238 7 240 35 295 l29 55 -12 120 c-6 65
-31 259 -56 430 -24 170 -49 369 -55 440 -14 167 -21 205 -59 349 -58 220 -86
421 -121 881 -21 271 -33 326 -116 522 -68 161 -91 203 -116 203 -5 0 -21 -21
-36 -46z"/>
<path d="M41770 20894 c0 -3 22 -30 49 -60 54 -59 94 -135 111 -210 17 -72 14
-258 -5 -360 -15 -85 -132 -554 -139 -562 -2 -1 -18 23 -36 55 -66 118 -177
270 -255 349 -183 187 -362 251 -630 225 -216 -21 -320 -49 -292 -78 3 -3 95
-7 204 -8 229 -3 298 -16 403 -71 163 -85 284 -263 455 -664 32 -74 70 -160
85 -190 15 -30 37 -87 48 -126 12 -39 34 -88 48 -110 29 -43 135 -307 157
-395 8 -30 18 -82 22 -116 l7 -61 -149 48 c-192 62 -269 92 -352 135 -246 130
-402 383 -444 725 -11 89 -16 105 -31 108 -18 4 -19 -2 -13 -114 18 -336 137
-590 359 -768 104 -84 198 -131 454 -231 169 -65 224 -91 239 -112 11 -14 39
-48 62 -75 l42 -48 -16 -37 c-63 -152 -151 -298 -242 -402 -138 -157 -191
-226 -185 -241 19 -48 56 -213 74 -325 25 -160 44 -220 77 -243 116 -80 134
-116 144 -287 5 -81 15 -158 29 -205 81 -289 90 -377 49 -502 l-23 -69 32 -94
c36 -105 41 -178 18 -260 -27 -98 -83 -238 -107 -267 -17 -20 -64 -45 -159
-84 -74 -31 -162 -68 -195 -82 -45 -20 -76 -26 -125 -26 -69 0 -92 9 -152 57
-62 49 -110 48 -252 -8 -156 -61 -239 -78 -343 -72 -140 10 -174 41 -184 173
-6 73 -10 88 -38 123 -17 21 -39 57 -48 78 -23 54 -20 177 7 293 17 69 23 127
24 215 1 137 -13 203 -54 269 -25 39 -42 52 -124 90 -114 53 -172 105 -219
194 -22 41 -47 74 -63 82 -46 25 -137 134 -181 216 -92 173 -137 374 -153 682
-17 330 12 727 86 1182 25 149 106 572 119 617 6 18 2 22 -26 28 -37 8 -32 14
-327 -307 -141 -154 -166 -187 -191 -246 -43 -106 -92 -188 -176 -292 -43 -52
-89 -120 -103 -150 -26 -56 -27 -67 -22 -237 2 -73 -1 -88 -27 -145 -17 -35
-54 -94 -83 -133 -98 -130 -115 -201 -84 -356 13 -68 18 -139 18 -259 -1 -224
-26 -360 -121 -655 -68 -212 -59 -271 65 -408 56 -62 80 -103 175 -296 60
-124 134 -279 165 -345 l56 -121 1 -225 c0 -219 1 -228 29 -325 29 -97 30
-106 30 -315 0 -179 -4 -232 -21 -314 -20 -99 -20 -100 -2 -231 37 -265 89
-764 95 -915 13 -317 -18 -463 -201 -934 -75 -196 -95 -269 -95 -352 0 -38 13
-61 132 -225 310 -434 521 -786 648 -1084 32 -75 50 -105 74 -120 50 -33 104
-114 142 -215 72 -187 136 -337 191 -440 59 -114 163 -274 213 -330 l31 -35
-6 45 c-18 145 -26 237 -36 437 -13 250 -3 446 31 643 11 63 20 144 20 180 0
36 6 88 14 115 12 47 11 55 -19 145 -61 181 -98 371 -126 635 -13 127 -14 496
-1 602 6 57 4 92 -10 160 -9 49 -22 151 -29 228 -6 77 -15 150 -20 163 -12 31
-11 69 3 95 6 12 17 58 25 102 22 128 69 250 128 330 12 17 32 52 45 78 26 57
73 91 144 107 36 8 63 24 104 61 91 84 84 82 305 64 206 -17 356 -43 440 -76
314 -124 527 -502 567 -1010 23 -291 -31 -664 -144 -1001 -55 -164 -70 -249
-56 -315 13 -56 23 -68 106 -129 35 -26 104 -95 154 -155 50 -59 123 -136 163
-171 105 -93 123 -115 167 -203 29 -56 48 -115 65 -197 27 -130 53 -199 91
-239 24 -25 27 -42 69 -430 56 -512 92 -878 104 -1044 16 -227 -9 -385 -110
-688 -54 -162 -58 -201 -29 -266 11 -24 20 -48 20 -55 0 -6 -47 -159 -105
-341 -57 -181 -103 -330 -102 -331 1 0 88 88 192 197 607 635 645 678 664 752
32 130 124 324 244 517 l47 75 10 215 c17 353 29 435 99 652 61 190 69 226
102 488 41 334 79 549 135 780 74 303 67 365 -53 502 -30 35 -91 99 -136 143
-116 113 -153 186 -174 342 l-16 118 -49 53 c-121 129 -202 423 -227 825 -9
142 -7 209 19 897 9 218 9 337 1 455 -6 88 -14 306 -18 485 -6 358 -1 427 47
620 54 217 77 442 81 790 3 187 -3 210 -69 282 -81 89 -81 87 -86 440 -4 333
-13 417 -61 601 -24 93 -25 103 -15 220 40 468 155 1046 267 1341 93 244 323
636 623 1061 139 195 160 228 160 240 0 15 -201 -1 -329 -26 -114 -22 -347
-96 -485 -154 -79 -34 -91 -43 -115 -83 -126 -216 -443 -527 -731 -717 l-95
-63 -95 -161 c-52 -88 -98 -161 -101 -161 -3 0 -16 33 -29 73 -67 217 -186
474 -349 756 l-84 143 12 102 c7 55 26 169 42 251 33 170 54 331 65 485 16
247 -50 448 -174 530 -43 28 -72 38 -72 24z"/>
<path d="M51445 20860 c-293 -62 -579 -152 -921 -289 -443 -177 -821 -376
-1089 -572 -125 -92 -253 -161 -302 -162 -23 -1 -41 7 -62 27 -16 15 -31 24
-34 19 -11 -19 -58 -187 -71 -256 -8 -42 -22 -90 -31 -107 -20 -38 -76 -64
-121 -57 -28 5 -36 1 -58 -27 -41 -55 -72 -63 -266 -70 -128 -4 -195 -11 -249
-26 -133 -36 -169 -25 -262 80 -91 104 -279 302 -305 323 -13 10 -39 24 -59
32 -33 14 -36 14 -42 -2 -14 -35 -6 -100 30 -253 64 -272 88 -436 94 -640 6
-179 7 -188 39 -271 67 -177 124 -433 124 -557 0 -90 -33 -161 -87 -193 -37
-21 -39 -24 -39 -75 -1 -30 -8 -63 -16 -75 -13 -20 -11 -34 19 -143 51 -184
65 -268 54 -337 -5 -32 -15 -67 -20 -78 -18 -32 -13 -58 25 -134 63 -125 56
-239 -21 -340 -24 -31 -39 -68 -54 -130 -11 -48 -35 -123 -52 -167 l-32 -80
31 -29 c63 -58 71 -148 22 -240 -61 -114 -261 -285 -434 -370 -65 -33 -96 -55
-128 -94 -44 -52 -167 -140 -212 -151 -14 -3 -26 -10 -26 -15 0 -13 145 -148
360 -337 206 -181 414 -388 467 -464 68 -99 65 -191 -9 -275 l-41 -47 43 -191
c23 -106 67 -266 96 -357 65 -198 78 -261 100 -498 15 -152 16 -190 5 -230
-14 -52 -196 -404 -286 -552 -85 -140 -108 -200 -109 -291 -1 -70 2 -82 36
-145 101 -188 169 -334 178 -383 6 -29 10 -126 10 -215 0 -311 20 -508 120
-1206 38 -267 81 -597 95 -735 65 -634 77 -743 106 -940 30 -215 113 -637 219
-1125 34 -151 69 -347 80 -435 38 -308 73 -438 151 -554 60 -90 129 -107 129
-33 0 20 11 114 25 207 14 94 25 191 25 217 0 26 12 132 26 235 45 333 46 351
33 448 -10 78 -7 180 25 770 20 374 45 858 56 1075 10 217 24 411 30 431 6 20
22 54 37 75 l26 39 -22 140 c-25 164 -26 210 -6 368 10 81 13 160 8 255 -6
154 3 265 48 544 24 154 29 212 27 330 -2 170 4 198 96 397 35 75 66 144 69
153 14 39 65 53 192 53 116 0 123 -1 185 -32 131 -66 278 -212 403 -402 164
-249 296 -504 412 -796 37 -93 91 -227 120 -296 120 -285 156 -442 162 -697 3
-158 6 -189 23 -222 25 -50 55 -160 77 -285 28 -160 25 -615 -5 -839 -13 -92
-22 -170 -20 -172 2 -2 27 28 56 66 28 38 97 122 153 187 56 65 108 125 115
133 7 9 29 69 49 135 78 256 170 459 279 613 l62 87 23 275 c34 417 58 656 87
862 l26 186 -26 39 c-42 63 -93 193 -157 403 -100 324 -146 545 -169 805 -16
187 -13 651 5 769 11 70 12 103 5 110 -6 6 -41 11 -78 11 -52 -1 -78 -7 -117
-27 -59 -31 -206 -78 -241 -78 -55 0 -252 125 -340 215 -60 63 -111 144 -140
227 -12 33 -43 210 -44 250 0 4 -18 27 -40 53 -51 59 -65 108 -50 183 17 83
104 312 162 425 74 145 139 226 314 392 170 162 337 349 378 425 38 70 59 164
52 228 -4 29 -26 104 -51 167 -70 177 -79 224 -80 425 0 204 5 236 120 710
101 416 108 456 103 559 -6 109 -28 154 -115 235 -73 68 -172 195 -209 267
-41 82 -63 186 -79 372 -17 198 -32 272 -75 357 -37 73 -60 232 -60 411 0 157
13 283 46 449 50 248 118 401 267 603 49 67 134 189 189 270 55 82 157 226
227 320 70 95 145 201 166 237 22 36 57 84 78 108 37 40 38 42 16 41 -13 0
-82 -13 -154 -29z m-2287 -2829 c69 -47 292 -246 309 -275 7 -12 17 -37 23
-57 5 -20 20 -49 32 -64 18 -24 27 -27 63 -23 26 3 65 21 105 46 l64 42 32
-46 c19 -26 38 -62 45 -81 17 -52 6 -133 -25 -197 l-28 -57 26 -137 c32 -165
70 -456 86 -645 9 -103 8 -151 0 -193 -17 -80 -56 -190 -85 -240 -20 -33 -25
-56 -25 -106 0 -88 -21 -151 -100 -303 -38 -71 -117 -231 -175 -355 -59 -124
-133 -279 -165 -346 -56 -118 -103 -183 -163 -226 l-29 -21 -219 219 c-120
120 -226 233 -234 250 -24 51 -18 115 44 487 100 595 105 666 62 922 -33 201
-44 335 -39 497 6 170 21 235 85 362 19 37 65 160 103 272 62 185 121 314 143
314 4 0 34 -18 65 -39z"/>
<path d="M33072 20356 c-76 -81 -114 -137 -157 -229 -48 -102 -66 -175 -72
-303 -7 -146 14 -275 77 -464 26 -80 47 -146 46 -147 -3 -3 -406 171 -466 202
-131 66 -237 154 -296 242 -55 83 -76 153 -83 273 -6 97 -8 105 -27 108 -28 4
-35 -24 -35 -147 1 -205 80 -367 248 -507 89 -73 191 -133 415 -243 197 -96
277 -145 359 -219 43 -38 62 -68 104 -157 70 -148 120 -273 113 -280 -3 -3
-46 1 -94 9 -183 32 -261 14 -317 -76 -21 -33 -35 -47 -45 -43 -8 3 -75 24
-149 46 -176 52 -216 71 -353 164 -63 43 -139 89 -169 102 -63 28 -162 53
-212 53 -25 0 -46 9 -75 33 -48 41 -450 259 -604 328 -134 60 -286 112 -389
134 -68 14 -420 59 -675 86 -126 13 -199 6 -247 -23 l-34 -21 40 -31 c74 -57
187 -170 247 -246 32 -41 97 -120 144 -175 219 -255 415 -629 520 -988 19 -67
55 -162 79 -212 24 -49 68 -142 98 -205 63 -135 106 -205 171 -278 40 -44 52
-66 72 -140 69 -248 71 -503 4 -742 -50 -176 -125 -250 -256 -250 -23 0 -86
11 -140 25 -128 32 -184 33 -220 1 l-28 -23 44 -54 c63 -77 131 -156 254 -297
201 -232 291 -375 320 -512 8 -38 31 -96 55 -138 53 -92 96 -191 161 -367 28
-77 93 -225 143 -330 l92 -190 2 -115 c2 -113 4 -124 117 -550 133 -499 180
-698 197 -825 21 -161 -5 -312 -74 -426 -49 -81 -49 -81 -57 -239 -5 -80 -17
-190 -29 -245 -29 -144 -117 -527 -142 -615 -52 -189 -127 -316 -278 -473 -54
-57 -116 -129 -136 -161 l-36 -57 20 -62 c41 -121 51 -195 50 -367 0 -91 -4
-192 -8 -225 l-8 -60 59 -59 c37 -38 72 -87 96 -135 32 -64 37 -86 40 -156 3
-53 -2 -104 -12 -144 -24 -93 -20 -139 30 -383 78 -382 148 -648 309 -1168 72
-234 109 -318 214 -486 38 -61 85 -145 104 -187 37 -80 104 -160 172 -206 22
-15 94 -56 159 -90 l119 -63 -7 53 c-18 139 -70 436 -96 549 -86 370 -127 871
-86 1043 17 72 44 133 82 183 23 32 23 33 11 137 -12 97 -11 107 5 127 12 15
18 39 18 75 0 62 31 253 60 364 45 178 130 403 247 658 105 230 144 271 294
312 113 31 226 85 342 164 52 35 112 70 132 77 27 9 33 15 25 25 -6 7 -7 20
-4 30 6 15 20 17 119 14 108 -4 114 -5 197 -46 154 -77 267 -227 323 -434 32
-115 44 -314 26 -409 -7 -34 -10 -64 -7 -67 8 -9 92 62 175 146 103 107 218
251 285 362 32 52 89 126 127 164 59 60 70 78 84 130 8 32 15 75 15 94 0 27 8
42 39 70 55 52 61 69 61 172 0 321 70 583 194 724 24 28 55 73 69 100 64 128
149 212 226 225 35 6 36 7 34 45 -4 64 -63 172 -144 265 -41 47 -91 111 -112
143 -104 157 -174 367 -198 592 -25 251 13 729 82 1010 19 77 35 136 154 539
30 103 55 192 55 197 0 17 -17 9 -111 -46 -52 -31 -148 -83 -213 -117 -116
-59 -315 -195 -520 -355 l-100 -78 -48 -120 c-55 -139 -185 -403 -257 -522
-56 -94 -54 -87 -76 -393 -18 -259 -37 -401 -70 -538 -31 -126 -63 -192 -125
-252 -42 -41 -172 -120 -197 -120 -11 0 -133 204 -157 263 -39 96 -217 865
-230 995 -3 39 -17 87 -36 125 -16 34 -36 89 -44 122 -18 71 -37 291 -37 427
0 162 51 274 175 384 37 32 83 84 102 116 44 72 115 151 170 188 35 25 45 40
58 84 46 157 161 400 257 544 l49 72 -96 0 c-53 0 -124 5 -158 11 -49 9 -81 8
-162 -5 -124 -20 -277 -20 -365 -2 -89 19 -205 68 -280 119 -34 23 -80 53
-102 66 -47 28 -85 103 -111 218 -32 144 -57 699 -36 823 16 97 63 244 110
345 44 95 155 239 175 227 8 -4 51 -41 96 -82 93 -84 128 -136 255 -369 49
-91 103 -179 120 -197 30 -29 79 -48 96 -37 5 2 8 35 8 72 0 180 124 447 279
602 110 110 254 169 412 169 164 0 246 -48 317 -188 21 -42 65 -117 96 -165
71 -108 99 -176 126 -303 25 -118 37 -314 22 -366 -8 -28 -6 -51 9 -104 30
-107 49 -261 49 -391 0 -129 -7 -202 -46 -456 -14 -93 -24 -170 -22 -172 2 -3
35 11 73 30 135 68 286 204 412 372 94 125 139 304 164 666 11 144 10 223 -6
526 -22 432 -17 845 11 1041 10 69 18 168 19 221 0 90 -2 100 -35 165 -34 67
-67 99 -174 174 -58 41 -82 86 -125 240 -97 351 -155 610 -192 849 -23 154
-41 204 -105 301 -48 74 -73 95 -102 85 -10 -3 -44 -63 -81 -140 -74 -157
-149 -275 -266 -425 -148 -188 -269 -287 -395 -320 -50 -13 -137 -91 -237
-213 -52 -63 -89 -95 -99 -84 -2 2 16 74 41 160 69 241 86 334 92 503 6 153
-2 234 -33 342 -13 46 -18 53 -37 50 -16 -2 -21 -9 -19 -23 2 -11 6 -77 9
-147 6 -145 -4 -221 -48 -353 -30 -89 -148 -338 -173 -363 -10 -10 -20 -1 -51
50 -21 35 -80 124 -130 198 -345 505 -446 777 -390 1045 19 91 90 232 160 319
43 54 53 72 44 82 -21 26 -47 14 -107 -50z"/>
<path d="M53022 20072 c-237 -363 -401 -676 -548 -1048 -93 -236 -108 -302
-108 -459 -1 -149 13 -211 74 -345 27 -60 48 -131 70 -240 18 -85 41 -178 51
-206 11 -28 25 -74 32 -101 12 -45 160 -308 203 -361 l19 -22 160 88 c88 49
220 121 293 161 73 40 143 82 156 94 19 18 31 59 65 222 l42 200 -24 55 c-50
112 -88 258 -111 430 -7 52 -30 148 -50 214 -83 269 -134 628 -156 1095 -6
118 -7 236 -4 262 8 62 0 93 -30 112 l-24 16 -110 -167z"/>
<path d="M29175 19411 c-79 -28 -128 -56 -186 -106 -122 -106 -223 -161 -426
-232 l-108 -38 -170 0 c-166 0 -173 1 -310 39 -170 46 -300 58 -386 33 -30 -9
-92 -41 -138 -72 -135 -89 -247 -109 -395 -67 -93 26 -232 30 -316 8 -30 -8
-88 -17 -127 -21 -50 -5 -73 -11 -73 -20 0 -9 -11 -12 -37 -8 -21 2 -50 0 -65
-6 -43 -16 -26 -49 41 -79 236 -105 310 -154 386 -252 100 -130 165 -295 165
-419 0 -31 7 -78 15 -105 8 -27 31 -126 50 -220 20 -94 51 -229 70 -301 65
-246 69 -282 70 -605 l0 -295 28 -85 c16 -47 33 -121 39 -165 5 -44 22 -117
35 -162 24 -76 25 -93 20 -215 -3 -93 -12 -156 -27 -208 -26 -91 -98 -246
-144 -310 l-34 -47 22 -27 c21 -27 24 -28 101 -24 44 3 114 13 155 22 90 22
289 17 410 -9 396 -86 875 -382 965 -598 9 -21 21 -39 28 -41 150 -37 256 -91
437 -226 58 -42 121 -82 140 -88 19 -7 58 -19 87 -27 93 -29 174 -103 242
-225 35 -62 39 -65 83 -71 84 -13 145 -59 257 -198 107 -132 154 -207 250
-398 73 -147 81 -168 81 -220 0 -92 29 -315 47 -353 67 -150 102 -335 110
-580 6 -194 -6 -291 -53 -441 -36 -114 -77 -192 -130 -249 -44 -47 -46 -51
-60 -151 -8 -56 -15 -103 -16 -104 -16 -14 -136 -67 -170 -75 -35 -9 -53 -8
-87 4 l-44 15 -46 -39 c-55 -46 -86 -45 -143 6 -91 81 -178 106 -390 109 -213
4 -216 6 -375 161 -122 120 -170 189 -187 271 -8 37 -67 93 -97 93 -41 0 -60
19 -167 169 -62 87 -88 212 -108 506 -7 99 -7 101 -46 143 -75 82 -101 167
-172 552 -60 327 -72 450 -89 902 -2 38 -5 44 -16 35 -48 -40 -172 -276 -301
-572 -174 -401 -330 -931 -370 -1260 l-11 -90 105 -415 c158 -626 179 -739
221 -1206 31 -338 45 -436 92 -624 25 -100 51 -175 84 -242 26 -54 55 -132 64
-175 10 -43 26 -116 37 -163 13 -59 36 -118 77 -195 64 -121 154 -320 207
-459 65 -170 81 -188 175 -206 78 -15 88 -9 77 43 -5 23 -11 128 -15 232 -4
149 -2 215 11 305 45 307 139 540 295 728 33 39 71 56 71 31 0 -6 24 4 54 21
135 77 316 111 476 90 209 -27 248 -26 334 9 134 54 182 41 284 -78 107 -123
162 -219 317 -545 121 -254 196 -368 272 -413 46 -26 115 -35 134 -16 5 5 18
70 29 144 36 250 80 453 169 769 80 287 150 474 178 478 22 3 34 39 108 310
52 193 116 360 211 553 101 206 118 259 112 350 -4 55 -14 85 -57 170 -71 142
-85 220 -76 439 10 277 32 391 145 750 59 186 62 199 57 275 -8 151 -75 242
-236 325 -119 61 -188 121 -228 197 -17 32 -72 184 -123 338 -95 288 -170 494
-241 666 l-41 97 -65 39 c-182 106 -317 325 -513 832 -92 239 -94 242 -119
236 -41 -10 -99 -54 -136 -104 -53 -72 -123 -134 -220 -197 -129 -83 -165 -96
-251 -96 -89 0 -140 22 -268 113 -162 116 -240 230 -258 376 -12 98 -41 160
-88 184 -19 10 -83 38 -141 62 -98 40 -108 42 -140 31 -184 -67 -399 128 -504
456 -64 200 -36 507 64 715 26 52 36 84 30 91 -14 17 58 103 117 143 166 109
404 70 548 -90 41 -46 55 -73 70 -139 3 -14 35 -65 71 -115 107 -147 228 -415
255 -565 7 -36 27 -94 45 -130 43 -83 61 -157 80 -316 21 -184 18 -326 -10
-435 -5 -21 0 -34 24 -60 l31 -34 51 54 c57 61 134 171 171 246 78 155 185
452 239 664 21 84 51 176 67 204 36 67 91 107 149 107 l43 0 0 53 c0 30 -7 94
-15 143 -8 49 -24 166 -35 259 -11 94 -28 199 -36 235 -26 105 -77 201 -150
280 -67 73 -86 108 -200 360 -26 58 -80 188 -121 290 -41 102 -80 196 -87 209
-7 13 -42 47 -77 75 -91 73 -122 121 -127 197 -4 55 -7 63 -36 80 -38 23 -85
23 -151 0z"/>
<path d="M51796 19212 c-95 -187 -223 -592 -246 -779 -26 -208 -31 -238 -49
-278 -10 -23 -28 -51 -40 -61 -16 -16 -24 -44 -36 -132 -9 -62 -16 -125 -17
-140 -1 -15 24 -189 55 -387 31 -198 66 -445 77 -550 24 -223 47 -328 95 -432
31 -68 35 -85 35 -160 0 -46 -9 -123 -19 -171 -11 -48 -31 -168 -46 -267 -62
-427 -134 -643 -323 -965 -78 -134 -141 -225 -233 -340 -88 -109 -129 -186
-129 -241 0 -26 -5 -39 -17 -43 -14 -6 -5 -14 37 -37 103 -56 198 -168 310
-363 201 -350 261 -556 415 -1426 70 -395 105 -549 194 -870 183 -654 317
-1040 507 -1459 122 -269 297 -582 316 -563 16 16 89 193 105 256 21 83 20
159 -5 371 -16 134 -22 237 -22 400 0 121 -7 375 -16 565 -10 216 -14 421 -10
550 14 503 26 751 41 835 23 132 76 308 180 595 51 140 102 286 115 324 l22
68 -21 27 c-88 110 -146 281 -235 681 -115 516 -131 641 -131 1020 0 289 10
394 57 595 40 172 114 350 210 503 l41 63 -66 64 c-61 59 -157 202 -157 233 0
7 -22 37 -48 65 -163 175 -370 513 -500 817 -139 323 -203 540 -247 830 -44
293 -74 456 -122 655 -25 105 -47 192 -48 193 -2 2 -15 -19 -29 -46z"/>
</g>
</svg>
