<svg version="1.0" xmlns="http://www.w3.org/2000/svg" width="9832" height="4440"
    viewBox="0 0 7374 3330">
    <path
        fill="#ffffff"
        d="M7038 7c-13 23-23 56-29 91-4 18-5 34-8 71-3 34-5 47-9 71-8 43-15 67-28 94l-9 18-15 16-15 16h-4a593 593 0 0 0-49-5 542 542 0 0 0-78-4l-43-1h-17l-6-7c-10-12-21-30-26-44v-16c2-14 7-35 16-71l15-69c2-15 2-43-1-55-2-13-1-12-8-12-10 0-15 1-15 3l3 2 7 2c6 2 6 4 6 19-2 25-6 43-26 107-9 27-11 34-11 30l-3-11a98 98 0 0 0-62-64l-12-4c-5 1-2 4 8 9 22 11 34 22 42 38 8 17 10 26 11 69a555 555 0 0 0 6 82c0 1-3 3-7 4-10 3-19 8-26 15l-5 5-10 1c-14 2-17 4-27 11-11 8-25 17-38 23l-10 6-10-8c-25-19-55-36-76-43s-38-10-70-11l-26-2-9-5c-3-3-9-6-14-8a241 241 0 0 1-65-41c-14-13-26-30-34-48l-20-44c-5-10-12-18-19-22-6-4-16-7-21-6s-5 4 0 4c12 2 22 11 29 25 6 12 9 20 16 48 7 27 10 33 19 46 12 18 39 43 60 56l6 3-4 1c-21 4-58 6-78 6-42-2-70-10-104-31-54-33-86-80-93-137l-2-10c-2 0-2 21-1 34a172 172 0 0 0 67 117l4 4h-19c-24 1-28 1-48-6l-23-7c-20-5-38-18-49-34-3-5-4-6-5-4-1 1 6 16 12 23 8 10 16 16 37 23l19 7c19 9 33 12 63 13 20 1 23 1 31 3l11 3 5 1c15 8 38 17 53 22 35 10 67 11 131 7 68-5 106-1 135 12a153 153 0 0 1 41 30l-5 3-4 2-7-3c-29-12-58-18-89-19-33-1-48 2-92 17-48 15-59 18-81 18-26 0-52-6-94-22-16-6-19-7-18-3 2 4 45 23 68 30 46 15 70 15 119 1 49-15 59-16 89-16 28 0 46 3 70 12l10 3-3 4c-6 7-21 21-44 39l-20 18a422 422 0 0 0-64 107c-17 36-21 45-32 64-22 42-30 65-33 90l-6 37a298 298 0 0 0-8 114c2 10 11 20 18 21 3 1 3 1 7-13l9-25 9-22c15-39 63-122 89-157a568 568 0 0 1 120-117l4-3 5-2c1-1 4-2 4 0l-1 1-1 4-1 7c-1 3-1 5 1 9 2 5 2 6-1 37-3 38-2 49 2 79 4 26 4 38 2 71-1 28-1 61 2 77l2 16a413 413 0 0 0-1 126 2554 2554 0 0 1 4 122l-2 43c0 9 0 10 3 14l3 5-1 18v109l3 5c2 4 3 6 3 13s-1 9-3 14l-5 7c-7 6-20 9-30 7l-6-1-1-20 2-58c2-48 1-77-2-88-4-16-10-26-20-34-7-4-9-5-10-2-1 1 1 3 5 7 18 17 18 44 2 97l-5 19-5-9c-7-12-14-22-27-39-14-17-19-26-26-49a136 136 0 0 1 8-118c4-8 4-10 0-10-5 1-19 23-28 45-10 22-13 42-13 70 1 35 7 55 29 100 7 15 15 30 16 35l4 8-6-5-18-23-19-23a481 481 0 0 1-76-104c-6-15-10-28-10-32l-3-8a134 134 0 0 1-15-48l-4-14a450 450 0 0 1-14-47l-2-4h-5c-1 2-4 12-5 23a571 571 0 0 0 3 98c7 42 20 96 32 135 10 33 29 69 57 109a1498 1498 0 0 0 45 61l-11-2c-15-3-35-5-64-6-39-3-57-6-69-12s-22-16-28-26c-2-4-2-5-4-5-4 1-3 7 2 17 6 11 13 20 23 27 8 6 25 15 39 19 15 5 70 19 114 29 60 13 58 13 66 18 23 13 49 23 66 26l30 6a803 803 0 0 1-19 113 506 506 0 0 0-59 110 648 648 0 0 1-38 75c-16 28-23 43-42 94-2 7-4 10-9 16-15 16-27 37-44 78l-18 38-34 74c-16 38-29 64-40 80-7 10-16 29-42 80l-68 139-5 24-3 8c-2 2-5 11-8 18-6 17-7 19-14 27l-7 10c-7 27-11 39-29 75a1098 1098 0 0 0-33 73c-5 10-19 31-27 41-5 7-8 16-8 27s-2 19-8 31c-4 8-6 15-10 31-17 71-42 142-72 210-6 12-13 30-16 40l-17 42c-18 47-24 63-33 102l-5 21 3 3 5 3c2 0 25-21 29-27a4000 4000 0 0 1 84-111c9-10 23-33 29-47 9-20 24-44 41-65 10-12 11-14 32-53a13673 13673 0 0 0 71-133c25-43 29-51 35-66a1093 1093 0 0 1 51-104l2 6a584 584 0 0 0 17 44 295 295 0 0 1-27 73c-20 45-25 60-27 81-2 13 2 33 6 33h2l-1-6c-2-7-2-24-1-31 4-19 14-41 37-77a853 853 0 0 0 24-39 225 225 0 0 1 15 78c1 37-4 66-24 130-6 22-7 26-6 27h3l9-25c35-93 42-134 35-193-1-16-3-28-11-68-10-51-13-74-13-93 0-17 2-24 12-46 9-19 11-25 13-33 0-5 4-15 5-19l8-8c6-6 6-6 8-13 1-10 6-19 17-34 7-9 9-13 10-17 2-10 6-19 17-41l13-30c3-7 9-17 31-49 26-39 27-41 29-49 4-13 9-27 22-52 9-18 13-25 16-36 5-17 9-25 24-50l17-31c9-21 15-31 29-52 18-28 22-35 28-55l9-22 10-19c3-7 6-12 7-11l10 65c5 38 5 60 1 110-4 37-5 42-24 81-7 14-10 21-9 23 0 2 4 4 6 2l13-23 29-49c9-14 12-19 15-30a376 376 0 0 0-1-143l-2-20 30 35c30 35 38 51 38 76 0 15-2 28-8 41-3 10-3 12 0 12 2 0 3-3 8-11 22-46 12-91-34-147l-29-38c-10-15-16-27-17-34l-1-6 6-9 13-17 12-14 15-23 11-17 1-7c1-15 7-31 18-46 7-9 14-14 18-14 5 0 11 4 32 25 30 30 37 40 47 65 2 8 9 22 14 33 24 51 25 54 34 85 12 46 14 66 9 97l-4 32c-2 26-2 30-6 41a748 748 0 0 0-31 132l-1 11-9 4-9 4-14-2c-45-6-73-5-110 4-36 10-74 29-105 52-12 10-14 12-14 15 1 5 4 4 18-5 51-34 107-48 164-39h4l-12 7c-26 14-38 22-70 49-65 54-93 88-102 125-3 10-4 26-2 33 1 6 2 6 4 6h2l1-12 1-17c4-17 16-35 33-51a467 467 0 0 1 108-69l-18 45a1051 1051 0 0 1-38 78c0 3 3 3 5 1s30-43 39-59c14-23 24-48 27-65 1-6 2-7 4-8l25-10a1960 1960 0 0 0 53-19l-10 43-21 83c-22 91-27 112-43 158a161 161 0 0 0-13 85l1 4 14-21a2052 2052 0 0 1 125-156l25-22c19-19 25-24 43-36a245 245 0 0 1 106-45c33-6 45-9 58-18 18-11 38-37 52-64 14-28 29-75 37-119 6-31 10-47 13-54 6-11 14-18 23-18 4 0 7-2 6-5l-8-1c-9 1-15 3-21 10-9 10-16 25-23 58-7 29-17 55-35 88-18 35-37 57-56 64l-30 1h-26l2-6 7-25c14-46 28-80 47-108 7-11 8-14 5-14l-7 6c-9 13-21 32-39 68-20 40-25 49-40 63a93 93 0 0 1-36 26 286 286 0 0 0-55 25l5-13c8-19 26-54 37-72 12-20 16-27 27-52 4-10 9-22 12-26 5-11 8-19 9-29 2-8 2-10 6-15a360 360 0 0 0 26-45l8-7c7-5 13-11 26-28 11-13 21-24 38-39 11-10 15-16 15-24 0-10-4-15-28-38-42-39-58-61-63-82l-3-19c-1-14-4-22-14-42l-16-30c-7-15-13-30-15-41s-2-11 11-4c14 7 26 12 41 15 7 2 14 2 43 3 37 1 44 2 57 7 19 8 30 24 43 62l8 19c4 1 4-2-1-20-7-30-13-45-23-58-12-17-25-23-73-36-46-12-61-18-82-34-10-8-27-24-26-25a427 427 0 0 1 82-11c26 0 31 0 64 5 19 4 44 5 45 3v-3l-13-3-38-9c-37-11-44-12-67-12a474 474 0 0 0-95 10l-6-3c-4-3-5-4-4-6l1-3-4-9c-14-27-24-69-22-89 1-6 1-7 3-7l2 2c0 2 0 2 2 1l4-2c3 0 49-17 81-29 7-3 10-5 24-16 32-27 32-27 74-56 63-44 72-51 105-88l27-29a242 242 0 0 0 53-80c7-18 8-20 19-38 15-21 22-35 36-66 14-30 20-45 23-56 2-7 2-12 2-34 0-3 1-11 5-22 5-16 5-18 9-54 7-55 7-56 7-66 0-6-3-18-6-33l-7-39c-3-20-4-25-10-38l-8-24c-8-26-12-37-21-57-10-22-16-38-20-50-9-30-29-68-56-106-21-30-30-41-63-80-50-58-82-81-141-106l-14-6 4-2 46-28c24-14 30-18 40-22 15-6 36-10 60-12 22-1 42 1 53 7 8 4 16 13 23 27 4 6 7 8 10 4 2-2 2-4 2-12-1-11-3-18-10-26a98 98 0 0 0-53-32c-44-12-101-3-173 27l-15 6 4-7c44-56 68-97 94-161 25-59 39-85 59-106 10-11 19-18 29-23 11-5 18-7 33-8 11 0 12-1 13-2 0-4-5-4-22-4-14 0-16 0-24 2-22 8-41 22-60 45-15 19-25 36-48 78a870 870 0 0 1-67 106l1-15c1-15 1-35-2-80-5-80-1-123 17-163 5-11 6-14 2-14l-6 7zm-192 537a544 544 0 0 0 68 15c22 4 43 12 76 28 25 13 39 20 49 28 21 18 52 49 79 80 31 36 56 75 64 100 3 7 3 12 4 19 0 9 1 12 4 19 4 11 8 28 12 45 1 8 3 18 5 21l6 17 3 10 1 31v30l-3 2-4 1v16a227 227 0 0 1-33 119l-15 9c-21 15-34 22-56 27-28 8-32 8-52 5-32-4-49-10-86-31-36-21-55-27-79-27-11 0-15 1-14 4 1 1 4 2 14 2 28 1 47 10 88 41a1103 1103 0 0 0 36 26l-12 5c-44 15-94 39-120 59-9 7-23 21-28 28-7 10-14 28-12 31 0 2 3 3 5 2l4-7c9-21 29-39 58-53 36-17 71-25 122-28a920 920 0 0 0 96-11l7-1c1 2-10 25-19 39-10 14-18 23-38 45l-33 36a309 309 0 0 1-174 96 651 651 0 0 1-88 0c-35-5-43-8-47-22l-3-28-5-51a1075 1075 0 0 1-12-151c-1-25-1-41 1-52 5-31 5-36 4-45-3-16-4-30-4-65l-1-43-1-40v-31l-4-11c-4-11-4-11-4-21a848 848 0 0 0-5-169c-8-81-8-74 0-89 6-10 14-23 21-31l6-6 13-4 34-13c26-11 30-12 44-11 8 0 13 1 28 5zM855 233c-21 3-33 13-55 47a275 275 0 0 1-82 79l-7 6h-21c-32 1-68 6-88 12-6 2-13 3-21 3l-20 2h-11c-7-3-16-1-29 7-3 3-9 6-14 8-9 3-15 7-24 13-9 7-53 8-90 3-18-3-36-6-70-15l-64-14c-49-11-47-10-59-18-27-16-28-17-53-42-34-34-42-41-59-49-8-4-22-8-27-8-2 0-3 2-2 4l6 2c21 7 38 20 68 52a1125 1125 0 0 0 34 38 440 440 0 0 0-57-6c-24-1-26 0-38 2-27 6-72 23-72 27l1 2c1 1 7-1 14-4 15-5 31-10 47-13 14-2 54-2 68 0 21 4 42 11 66 21l67 31a474 474 0 0 1-108 31c-16 3-27 6-39 10-7 2-8 2-9 5-1 5 0 5 35 1 63-6 76-9 126-28l23-7 23 8c28 10 63 18 86 21l5 1-9 6-24 14c-28 15-40 25-54 44-8 10-15 18-34 37-16 17-26 29-29 38l-12 23c-12 23-15 29-31 78a2222 2222 0 0 1-40 113c-3 14-6 30-6 40l-3 36c-5 46-6 66-4 81 2 18 5 35 7 40 4 8 13 16 18 16 2 0 2-1 3-6 9-45 25-92 50-149a565 565 0 0 1 146-204c2-2 3-2 2 1-2 3-1 15 1 21s2 8 2 37c0 35 1 42 6 66 8 42 8 40 9 73 1 45 4 65 9 88 3 11 3 12 2 41 0 33-1 23 12 118 12 84 11 78 11 115 1 35 1 36 6 43 2 3 2 5 3 13l5 77c5 41 5 45 0 52-2 4-9 7-14 7s-19-4-28-9c-9-4-15-9-22-17l-11-11c-13-8-49-49-66-75a268 268 0 0 0-28-36l-12-15c-36-38-73-94-84-128l-3-9-6-1c-9-2-9-1-8 10a213 213 0 0 0 20 89 3421 3421 0 0 0 80 169l12 29 8 15h-8c-18 0-36-5-70-19-37-16-58-24-80-30-12-3-15-3-15 0 0 2 3 3 11 7a673 673 0 0 1 109 59c-6 2-81 18-96 20-24 4-23 4-23 6a520 520 0 0 0 129-6c23-4 24-4 30-2l14 2c9 0 23 3 28 4 3 1 19 21 51 63l24 30c2 3 7 5 10 7 14 6 16 7 35 25 30 29 30 29 17 69-12 34-16 43-28 55-6 6-10 8-20 11s-11 3-23-1c-14-4-24-9-42-19-35-19-47-24-68-29-40-10-73-6-92 12l-6 6c0 2 3 1 6-1 21-16 54-14 90 3l17 11 32 26-15 2c-102 15-177 55-210 112-5 10-11 25-11 28l2 2c1 0 3-2 6-8 17-33 48-58 93-73 22-7 61-14 76-13l6 1-13 12c-25 26-44 38-67 43-13 2-13 2-11 4l13 1c18 0 36-6 55-18 11-7 18-13 33-30l12-13h6l46 6c20 3 39 5 49 5h9l-2 7-21 43c-15 27-20 40-20 53 0 8-2 19-5 27-7 18-20 34-55 69-30 29-34 33-34 42 0 10 3 15 22 32 13 11 20 19 34 37 9 10 17 19 24 24s8 7 20 28l12 21c4 7 6 10 6 14 0 6 4 19 11 33a801 801 0 0 1 24 53l6 12-1 10c-2 21-5 37-11 63l-3 17-21 19c-27 25-38 36-51 56a520 520 0 0 0-74 222 553 553 0 0 1 72-193c8-12 24-33 34-43 8-9 30-28 31-27l-5 19c-21 89-26 112-37 199-10 76-9 129 2 167 11 37 31 61 59 70 11 4 11 4 13 1 3-3 1-5-8-8-31-12-48-38-55-85a563 563 0 0 1 38-233l8-23 2 8a305 305 0 0 1-8 165l2 2c3 2 5-1 10-13 13-34 19-70 18-106-1-17-2-28-9-73l-3-14 8-22a1118 1118 0 0 0 31-97c1-2 1-1 3 5a918 918 0 0 0 40 83c10 14 10 16 15 35l5 20c0 2 7 11 13 19 36 43 73 91 107 139l12 18 1-4 1-19c0-20-1-28-14-68-16-47-20-60-46-170l-22-87a712 712 0 0 1-23-105c0-2 1-1 7 4 10 8 20 17 31 24 20 15 25 24 39 64a1033 1033 0 0 0 25 69c2 7 3 9 4 7 1-1-3-24-11-52a1895 1895 0 0 1-13-57 875 875 0 0 1 58 41c25 23 39 51 52 101 4 15 5 16 7 17 2 0 2 0 2-5l-5-22c-11-43-24-73-42-97-9-11-24-26-46-45-40-34-85-76-105-97l-14-16-5-18-13-48c-5-11-6-15-7-40l-4-33c-4-23-3-47 5-78 9-39 14-52 31-89a833 833 0 0 0 34-74l12-17c9-10 41-41 47-45 9-5 17-1 29 18 9 13 14 28 14 39v7l13 19 17 25 11 14c14 15 22 30 37 64l17 35c6 12 10 21 14 34 7 19 10 25 26 49l15 23 19 38 15 27c14 25 17 30 22 47 4 12 8 20 18 41 11 22 15 29 19 43l5 16 18 26 17 26-1 4c-2 7-2 26 0 39 3 17 4 24 11 50 10 36 10 43 12 90l1 32-5 7c-3 3-10 16-16 27-14 23-16 26-34 51-37 50-42 65-45 131a253 253 0 0 1-13 82c2 1 4-1 8-11 7-17 9-29 17-76 4-30 10-49 20-66 4-6 9-12 32-35a710 710 0 0 0 40-42l2 12a3685 3685 0 0 1 24 151c10 68 16 96 25 129a336 336 0 0 0 126 183l2-1-18-18a362 362 0 0 1-108-230l-2-43 5 8c11 19 21 33 48 61 26 28 34 36 44 51 9 13 17 34 19 48l3 12c2 0 2-2 2-9 0-32-15-68-48-115-37-52-45-65-57-88-7-15-15-37-17-48a781 781 0 0 1 3-155l6-59c0-2 0-2 4 1 5 5 8 12 10 21a1102 1102 0 0 0 72 154c11 20 33 67 44 93 5 14 9 22 34 64 11 19 28 49 36 66a1041 1041 0 0 0 104 177l8 17a315 315 0 0 0 33 49l28 35 46 63 19 21 13 10 5-3 3-3-3-14c-9-39-16-60-34-104a1161 1161 0 0 1-31-80 1227 1227 0 0 1-84-245c-7-13-8-19-9-34-1-11-1-14-4-19a340 340 0 0 1-39-65 8059 8059 0 0 0-52-122c-3-14-3-14-10-22-6-6-8-10-14-26l-7-17-3-8c0-5-3-18-7-28-2-5-8-20-15-32l-26-53c-32-65-61-120-68-132-12-17-19-30-44-88a2104 2104 0 0 0-50-109c-15-37-27-56-42-73-5-4-6-7-14-28-19-50-21-55-42-92-15-25-21-38-31-60-25-58-41-86-61-111-10-13-11-14-21-37a444 444 0 0 0-34-66c0-1 21-13 70-37l55-29 13-13c25-26 40-40 67-64 33-29 58-54 68-67l21-28 26-34c7-9 17-25 27-46l8-17 18-7c23-8 46-19 58-28l20-17 11-10 20-9c35-16 47-23 62-38 12-12 19-21 36-51 16-26 23-36 33-47 10-9 18-15 30-20 8-4 9-6 7-8-1-1-3 0-9 1-25 9-41 22-74 62-28 33-38 43-56 51l-10 5 4-9c16-27 25-56 39-128 9-46 15-69 22-92 11-32 21-50 36-65 13-14 24-19 40-20 7 0 7-1 8-3 0-2-1-2-5-3-6 0-18 1-27 4-25 9-47 33-66 73-14 27-16 34-43 117a307 307 0 0 1-96 156c-9 6-29 17-30 16l4-11c7-15 11-27 20-54 16-49 16-52 13-84 0-5 0-10 3-22 4-18 5-41 5-94v-34l-7-26-11-41c-3-16-5-24-8-30-2-2-2-4-1-5a309 309 0 0 0 16-113 695 695 0 0 0-2-80l-1-20c1-22 7-37 30-76 24-43 31-58 33-81 1-8 0-17-1-17l-1 5c-3 18-8 29-28 58-11 15-19 28-33 51l-7 14-1-6c-2-14-2-71-1-86 5-64 25-111 61-150 5-5 9-9 8-10-3-2-30 22-42 38-35 46-53 111-53 193l3 62 2 52v15l-5-11-11-36-24-67a232 232 0 0 1-25-98c-2 1-3 11-3 27 1 25 5 41 18 81l25 84c11 40 17 58 19 61 2 2 2 3-1 14l-6 19-2 6-10-19c-6-11-13-27-16-36-18-43-39-77-83-128-15-18-59-65-73-77-34-31-68-50-112-65l-56-15 10-7 24-17c36-26 54-35 78-40 13-2 31-2 45 1 9 2 12 2 12 1 2-3 1-5-7-7-15-4-25-6-41-7-31-1-49 4-96 27a651 651 0 0 1-55 21l9-10c10-11 22-26 25-32l14-26c13-25 17-32 25-40 7-7 14-11 23-13 6-1 8-2 8-4s-3-2-9-1zM677 542a503 503 0 0 0 66 10c21 2 42 9 72 22 34 14 44 20 74 46 15 13 56 53 69 69 36 42 55 76 56 98 0 4 2 8 4 14 5 10 11 28 15 45 3 9 6 19 11 29l6 16 2 16 3 26c2 17 2 19-2 21l-3 1 1 11c1 17 1 47-1 60-3 15-9 38-15 55l-9 26-8 19c-11 20-20 42-22 49-5 26-20 56-46 90l-24 33a351 351 0 0 1-109 97l-10 5v-3a636 636 0 0 0 15-127c2-10 10-26 25-52 27-48 35-71 35-96 0-12-1-20-7-31-3-8-5-9-8-7-1 2-1 2 1 7 5 11 5 28 1 43-3 10-12 29-21 42-10 16-32 46-33 46a907 907 0 0 1-22-143l1-36c4-20 12-40 23-56 5-9 6-11 2-12l-10 11c-13 18-19 28-26 46-12 30-16 59-14 109 3 85 3 86 2 106a953 953 0 0 1-14 111 268 268 0 0 1-53-108c-3-10-3-17-4-31 0-19 1-28 4-42 2-8 2-8 1-10-3-2-5 0-9 8-13 32-14 70-3 113 6 24 16 49 31 85 8 20 18 46 17 47a511 511 0 0 1-58 2c-12 0-25-2-30-4-7-3-12-9-14-19l-5-29-10-54a1425 1425 0 0 1-25-188c3-24 3-38 1-45-5-24-6-32-8-66-2-24-4-41-7-52l-2-28c-1-28-3-34-9-48-3-8-4-13-4-41-1-41-2-48-19-149-7-44-11-68-10-70 1-9 10-28 20-45l5-9 10-4 47-24c16-9 26-10 54-5zM3449 426c-2 3-1 27 2 39l3 24 5 28 3 15-1 19c-2 45 6 119 20 170 3 13 3 14 3 32 1 21 2 31 9 62a459 459 0 0 1 11 69c2 0 11 9 15 15 15 23 12 50-5 68-17 16-37 19-53 9-4-4-5-4-7-2-11 6-30 10-68 16-20 3-31 6-40 9a165 165 0 0 1-109-31c-25-16-33-23-80-60a4449 4449 0 0 0-61-48c-3-4-6-20-9-43-5-37-12-59-24-77-5-9-14-18-16-18s-2 0 4 7c7 9 14 24 18 36 2 9 2 13 3 29 0 16-1 43-3 48 0 2-1 1-8-3-19-10-56-28-67-32-21-9-37-12-58-11l-48 7a505 505 0 0 1-33 7l59-3c23-2 35-1 49 4 28 9 66 38 92 68 9 12 32 41 31 42l-7-1c-10-3-24-5-44-7s-29-4-61-12c-24-5-36-8-83-16a520 520 0 0 1-194-72c-18-12-36-31-49-52-11-16-24-43-29-61-3-12-4-7-1 7 9 45 32 90 61 121 15 15 29 23 77 44a733 733 0 0 0 77 31c-10 0-48 6-72 11-45 9-68 11-88 5-8-1-19-7-24-11-4-3-6-4-6-2 0 1 16 16 23 21 14 9 28 15 43 16a426 426 0 0 0 139-17l21-6h18c14 1 17 0 19-1s4-1 19 3a1216 1216 0 0 1 104 29c25 7 41 12 54 18 15 7 57 23 62 24a136 136 0 0 1 47 37l-24 1c-28 1-35 2-78 10-50 10-50 10-91 10-36 1-46 1-68 5-9 2-19 2-42 3-38 1-47 2-64 10l-8 3-22-1a2951 2951 0 0 0-236 2c-42 3-57 5-79 10a1160 1160 0 0 1-94 16l-33 10-1 3c1 2 1 3 13 3 18 1 28 3 61 14 30 10 44 13 67 15 8 0 14 2 44 11l34 11 8-1c12-2 27-1 42 3l24 5 28 3 29 4c34 7 37 7 56 8a1742 1742 0 0 1 151 14c25 2 40 4 55 7 13 2 15 2 32 2 32-1 44 0 51 2 15 4 24 5 40 6 40 2 47 3 65 8l-11 5-62 29c-35 16-47 21-64 27-28 9-52 12-82 12-33 1-50-3-70-13-10-5-13-6-13-2 0 1 10 9 19 14l17 7c43 15 98 12 150-7 17-7 32-13 68-30 25-12 42-19 53-23l5-2-6 6-24 23c-41 39-64 54-92 59-5 1-7 2-7 3l11 1c14-1 26-4 41-11 15-8 25-15 60-40 39-29 52-37 72-44l7-2 35 4c43 6 49 6 56 3l11-6 9-7 4-3h41c54 0 70 2 96 11l17 4c5 0 9-3 16-13l6-8c1-2 2-3 1-4l1-3 12-1 14 1c4 2 11 12 15 20 2 5 2 6 2 16-1 17-9 38-17 45-3 3-4 4-5 9l-6 20c-9 30-7 36 16 50 18 11 27 20 35 32 7 11 10 20 11 37 1 9 1 12 6 23a98 98 0 0 1 9 60c-4 17-3 24 2 32a595 595 0 0 1 13 120c-1 14-1 20 3 50 3 32 3 38 4 80l2 69c1 26 1 38-2 54l-10 63a3563 3563 0 0 0-1 201c-2 11-30 95-38 111-6 15-8 23-7 31 1 11-4 25-13 37l-12 19c-16 29-15 28-52 60l-28 24a299 299 0 0 1-96 59c-13 6-19 14-19 25 0 8 2 14 8 19 4 4 10 6 23 10 28 6 41 19 48 44 3 12 5 16 12 22 10 10 24 11 32 3 2-2 6-12 9-20s7-12 13-15c5-3 8-3 19-4 10-1 14-1 18-4 14-5 17-6 27-6l13 1c4 1 5 2 11 10l17 24c18 24 24 38 23 53-1 9 1 5-26 42-23 30-27 35-40 58l-20 34c-30 48-45 81-52 113-3 14-3 40-1 53 4 17 15 41 20 42 4 0 3-2-1-12-8-15-8-20-8-40 0-19 0-21 6-40s25-53 46-83c8-13 28-40 34-47l2-2v6l-3 74a318 318 0 0 1-8 74c2 0 5-5 8-17 7-19 10-44 12-82 2-40 7-62 16-79 7-11 26-36 27-34l15 44c16 46 18 54 23 86l15 78c13 64 17 86 26 143a822 822 0 0 0 14 92c0 12 0 16 2 24l5 19a423 423 0 0 0 12 53l3 14c3 2 5 1 5-1l5-21c8-30 12-51 12-57a764 764 0 0 1 17-119 9129 9129 0 0 1 10-187v-6l8 10 9 12 2 31 3 37c3 20 12 39 32 72 14 24 26 46 28 55 3 8 5 10 6 8 1-4-8-28-26-68-9-20-14-33-18-46-3-13-3-34 0-48l2-9 9 7 28 22c33 24 49 39 63 60 11 16 16 29 20 47a227 227 0 0 1-20 125c-14 38-19 57-19 76 0 11 1 16 3 16s2-1 2-5c0-22 7-41 26-76 13-23 21-39 26-55a195 195 0 0 0 11-85l36 22c11 7 26 22 30 30 7 14 9 23 10 51 1 23 1 27 4 24 2-2 2-38 0-51-4-27-15-47-34-66l-24-21c-30-23-29-22-36-37a458 458 0 0 0-86-113c-40-40-49-52-79-103l-8-15 2-30 12-144c3-23 5-29 13-31 7-2 23 3 34 11l22 22c11 11 19 19 22 20 8 4 15 2 25-10 9-11 8-11 21-5 19 8 24 7 36-8l26-37c3-5 3-13 2-25-2-19-8-36-18-49-12-17-76-75-89-82-8-4-28-20-38-29-10-10-16-19-23-34-15-28-35-92-44-134-6-29-8-53-9-86l-3-52c-2-49-2-106 1-163l4-69a2441 2441 0 0 0-2-233l-2-60-1-7 5-2 5-2v-11l3-55 3-45-2-7-2-8 5-10 10-18c11-19 18-26 34-35 14-7 15-9 11-24l-2-11c0-7-2-13-6-16-3-3-8-5-21-8-8-1-9-2-13-6-9-9-13-23-14-43 0-15 1-25 6-35 2-4 3-5 7-6 7-2 20-1 26 2s11 8 15 14l5 5a2285 2285 0 0 0 160-31c67-15 80-18 93-19 19-2 30-4 54-11l25-6 12 7c14 9 24 13 36 16l32 1c36-1 49 0 64 7 8 4 17 13 21 19 1 4 3 5 4 3s-6-14-11-20c-11-11-18-15-43-21-14-4-35-12-55-22l-5-3 7-1a889 889 0 0 1 149-20c27-1 31-2 69-9l37-7c23-4 106-14 242-29 39-4 50-7 71-22l18-6a761 761 0 0 0 95-31c0-2-3-3-10-2-8 1-19 0-35-3a464 464 0 0 0-51-6c-21-3-23-3-54-4l-60 2-26 1-11-4c-11-6-14-6-27-3-14 3-44 3-73 0a506 506 0 0 0-58-4c-9-3-30-5-50-6l-59-2-182-14c-30-2-32-2-51-1-33 2-84 0-84-4l7-12 43-69c13-24 18-36 18-47l-1-6c-1 0-2 1-2 3 0 5-3 13-8 20a336 336 0 0 1-67 60l2-9a280 280 0 0 0 13-102c1-55 1-60 12-86 13-34 28-54 46-63 6-2 8-4 8-5 0-6-21 3-32 13-9 7-19 18-29 34-15 22-24 42-27 62-3 13-3 13-5 9l-11-17a176 176 0 0 1-29-74c-1-10-3-7-3 4 0 23 6 45 23 82 12 27 17 47 16 72 0 16 0 17-3 28-12 37-37 97-41 103l-17 4c-14 3-17 3-33 3l-25-1-22-4c-19-1-26-3-38-7-12-5-25-8-39-11-10-2-13-3-24-2-14 0-22-1-32-6-11-6-19-15-21-26-1-6 0-14 4-22 3-7 12-18 17-21 3-3 4-3 7-17a1876 1876 0 0 1 30-98l9-28a1274 1274 0 0 0 29-110l4-12-1-1a763 763 0 0 1-99 122l-8 12a73 73 0 0 1-26 35c-4 2-6 4-8 9a96 96 0 0 1-80 45c-14 1-15 1-21-3-8-4-16-11-17-16s-2-16-1-22l1-4-11-11a92 92 0 0 1-27-48l-7-18-5-10v-13a291 291 0 0 1 17-105c12-42 15-62 13-83-1-12-3-20-5-21v14c1 24-2 36-13 59a360 360 0 0 1-33 54l-6 8c-2 0-6-15-14-48l-10-28-8-23c-5-33-13-51-28-68-4-3-8-9-11-17-11-21-23-39-34-51-4-6-8-6-10-3z" />
    <path
        fill="#ffffff"
        d="M5686 1023c-19 29-27 62-26 106 2 57 20 119 60 202l33 73a346 346 0 0 1-60-79c-19-31-28-44-41-58a98 98 0 0 0-53-32c-3 0-3 2 0 3l21 10c12 9 22 20 34 37 9 14 17 29 32 62a542 542 0 0 0 86 138l6 9 5 31c6 38 10 53 18 71 3 5 3 4-1 28-6 31-10 47-23 73-15 34-31 60-43 70l-2 2 2 19c2 14 2 26 3 54v36l-4 8c-4 7-6 10-23 27-16 17-19 20-20 25-1 3-2 6-1 8 1 6 11 29 35 79 22 44 25 57 31 137a5961 5961 0 0 0 9 108c0 10-5 25-17 54a237 237 0 0 0-18 52c-5 9-5 18 1 23a498 498 0 0 0 11 96l2 15-1 55c-1 60-1 60-8 98-4 19-5 29-7 51-2 28-4 40-15 89l-5 30c0 12 1 26 3 27 1 1 27-22 59-52a690 690 0 0 1 104-85l2-4v31l-3 2-11 12c-10 12-16 17-45 39-38 30-47 37-61 57-35 47-61 114-66 171-1 17-1 23 1 24 2 0 3-2 3-7 0-13 5-39 12-59 5-17 11-31 26-59 19-38 33-58 48-71 9-7 27-16 53-25a468 468 0 0 0 38-17c0 3-12 27-24 49a403 403 0 0 0-32 70h2l5-10c7-13 16-28 31-49a271 271 0 0 0 60-128l2-14c0-2 9 12 11 20 4 11 3 21-1 44l-5 27c-1 11-1 28 1 29 3 2 4 0 4-12 1-14 2-20 11-47 12-40 12-53-2-92-9-24-8-23-6-29 4-9 8-21 9-31 3-12 7-23 16-41l13-23 10-16c7-8 12-16 14-24 2-9 12-32 24-58l16-34c5-11 15-26 20-30l11-14c8-9 12-17 44-80a1951 1951 0 0 1 107-193l10-17v-11c0-12 1-16 10-31 6-11 24-52 28-63 2-8 3-9 11-19 7-8 10-15 21-54l10-32c4-11 12-28 16-33 3-4 14-36 13-37l-12 12a454 454 0 0 1-67 62c-11 16-30 37-48 54a85 85 0 0 0-19 20 922 922 0 0 1-21 35 250 250 0 0 1-67 91c-4 3-6 9-6 19 0 8 0 10-3 15-1 3-4 7-7 9s-6 6-8 10c-10 17-29 43-41 55l-9 13c-11 19-26 37-38 45-7 5-12 11-20 26-16 27-25 38-35 40l-10 6c-6 5-6 6-13 23-7 22-13 36-15 38-2 3-7 6-8 5l-6-43c-1-17 2-35 13-71 9-28 9-30 9-46 0-10 0-16-2-23-6-29-6-26-8-76a969 969 0 0 0-4-101c1-16-1-52-5-83-4-32-4-33-1-34l2-2c0-2 5-2 44-6l42-2c23 0 25 0 34-3l23-6c18-4 27-7 47-14a214 214 0 0 1 29-9l-12-7-28-16-13-9h-8c-10 0-27-2-51-7a819 819 0 0 0-66-14l-30-7c-9-2-9-2-6-13 4-18 14-38 27-56l7-10v-9c0-11-2-23-5-27-3-6-4-42 0-55 2-7 2-33 0-85-1-38-1-41 4-53l8-20c4-14 6-18 10-21 3-3 7-3 15 1 7 4 28 19 32 24 1 2 4 4 7 5 5 2 11 7 13 12l5 15a1808 1808 0 0 0 38 111c15 16 33 53 41 84 4 12 4 13 11 22 11 15 12 15 17 15l18-2h58a744 744 0 0 0 148-4l24-12a615 615 0 0 1 41-20 849 849 0 0 0-110-30c-45-11-49-12-61-22a394 394 0 0 1-84-120c-12-28-13-32-14-51v-15l-4-5c-6-7-7-12-7-34l-2-24c-3-13-3-39 0-57 2-10 1-30-1-33-2-2-3-2-17 4-11 5-17 6-37 6h-19l-17-5-41-13c-49-13-76-24-94-38-13-10-40-42-47-56-1-4-3-5-5-4l-10 19c-7 19-8 20-9 33a1023 1023 0 0 0-7 67c-1 14-6 37-7 38s-13-24-17-35c-9-29-12-49-13-117-1-50-2-61-6-79-6-23-17-41-31-51-5-3-6-2-2 2 12 10 22 30 25 53 2 12 2 43 0 63a1368 1368 0 0 0-7 82 822 822 0 0 1-64-119c-15-36-21-63-22-94-1-30 3-48 15-72l6-14h-2l-8 9zM1460 1039c-6 2-5 3 1 2 5 0 7 0 12 3 12 5 24 17 39 41 15 23 24 45 30 72 5 23 6 33 6 77 1 41 1 41 3 54 7 29 15 53 25 70l5 8-4 20c-2 12-4 23-6 27-2 5-2 8-3 18 0 11 0 12 3 25 3 11 4 16 4 23a1182 1182 0 0 0 10 113c9 48 11 66 9 114-2 39-3 34 4 52 2 4 2 8 2 16 0 11-1 19-8 36l-3 8h-6c-5 0-6 0-23-10l-21-11c-7-2-17-1-20 3-1 1 2 11 7 30 14 47 24 75 35 91 7 11 9 15 9 21 0 4-2 8-5 8-4 0-1 6 12 31l11 24c4 13 7 19 13 25 3 4 7 14 9 30 3 12 4 51 4 84 0 32 0 35-8 48-5 9-6 13-6 23 0 9 3 18 16 47 8 19 9 22 11 31 1 13 5 24 12 35s10 20 14 56c3 22 5 28 10 43 5 18 7 30 15 100 6 49 9 72 19 113 4 19 4 18 19 44a784 784 0 0 1 29 53l2-15c3-23 8-46 16-65 2-5 4-12 5-23 4-28 7-42 12-49l8-24c4-19 5-24 6-38l2-17 8-19 15-35c9-23 20-44 33-66 19-30 26-46 30-68 2-12 4-16 12-30 8-11 8-11 10-21l6-22c3-9 4-16 5-23 4-38 18-90 35-130 6-15 10-27 10-33 0-7-3-22-10-51-6-25-7-31-7-38 0-11-1-21-6-45l-15-94a1769 1769 0 0 0-20-126c2-3 0-13-5-29-5-15-9-24-18-38l-13-23c-10-16-17-26-26-35-11-10-16-13-22-11-6 1-6 2 0 17 11 31 17 50 23 83 10 46 11 57 9 67l-1 54c-1 60-3 115-5 130l-2 19-2 41c-1 53-5 72-23 122-11 32-29 77-32 80-1 1-8-6-10-9-10-24-28-75-30-86l-2-29-3-48c-2-19-2-25-2-51l2-102-3-15c-2-7-2-8-2-35 1-35 3-52 10-79 6-21 3-30-12-39-12-7-18-16-21-32l-5-41-10-67c-4-19-6-39-7-64l-1-51c-2-33-1-47 5-79 3-16 3-17 1-23-2-10-2-45 0-61 4-31 13-71 24-111l7-26-2-6-2-6-2 2-10 14c-19 27-46 59-63 77-9 9-12 13-15 20l-16 29a242 242 0 0 0-24 50c-1 0-6-13-9-26-3-11-3-15-3-21 1-12 5-29 15-58l10-35a219 219 0 0 0-12-97l1 18a239 239 0 0 1-21 118l-2-7c-3-19-14-55-23-77-12-28-28-51-47-71a69 69 0 0 0-27-18c-7-2-9-2-14-1zM2220 1098l3 15a455 455 0 0 1 12 47l6 22c5 24 12 38 28 51l9 10 16 24c26 36 29 43 44 92l10 29c9 19 11 32 7 60-2 16-1 47 1 70 2 10 2 22 2 39 0 21 0 26 2 35 3 19 3 23 0 44a2134 2134 0 0 0-13 80 457 457 0 0 0-27 69l4 27 14 81c7 31 7 37 7 54-1 19-3 25-11 43-7 15-11 25-16 44-7 26-7 38-1 54 2 7 2 9 3 27 0 21 0 29-5 59a1565 1565 0 0 0-18 190c1 8 6 21 10 28 3 4 12 26 22 49 34 84 46 108 66 135l21 23-3-19c-8-45-12-89-13-130-1-53 2-80 19-157l6-34a475 475 0 0 1 22-135c1-18 8-33 20-44 8-9 16-13 26-16l11-4c7-5 14-7 22-7 7 0 8 0 15 3 10 6 15 9 25 20 18 18 30 41 38 72l9 34c19 59 23 74 29 104l11 48c14 52 17 68 19 95 1 11 1 13 3 18 13 22 16 35 22 77a937 937 0 0 0 18 99c4 26 5 28 13 36 3 4 7 7 8 7s3-3 6-11c8-19 18-52 22-69v-3l6 5 18 17c11 12 13 13 15 20l4 11c3 6 4 15 3 24-1 25 9 57 25 74 4 5 5 5 6 4 2-1 1-2-3-9-7-9-11-19-14-30-2-6-2-11-2-22-1-14 1-30 3-30l26 21c21 21 31 50 31 89 0 16-2 33-5 49-2 10-2 13 1 12 2-1 6-17 9-33 2-16 2-48 0-61-6-29-16-49-37-73a356 356 0 0 1-45-63c-1-3 15 3 40 15 28 13 51 23 54 23 4-1 2-4-7-9l-24-17a372 372 0 0 0-82-48l-11-28-4-10v-22c0-19-1-46-4-77l-3-34-1-22-4-6c-9-15-14-43-18-98 0-14-2-35-4-48-4-47-5-83-2-113a630 630 0 0 0-8-62c-8-31-8-47 0-76 6-24 7-31 7-43-1-18-7-30-20-44-7-8-10-13-17-25a512 512 0 0 1-44-168v-18l-2-4-7-9c-10-11-19-30-24-48-9-29-11-76-7-127l2-15 12-21a331 331 0 0 0 40-96c9-33 13-43 20-59 7-15 15-24 23-30 10-8 22-12 31-12 7 0 9-1 7-3-1-2-3-2-13-2-19 1-31 6-44 19s-22 30-38 68l-13 30-4 9v-13l-1-22c-3-30-12-66-20-83-4-7-5-8-7-7-1 1-1 2 2 8 8 15 12 33 13 61 0 28-2 45-10 61l-3 7-4-5-6-7a2741 2741 0 0 1-29-44c-1 0-4 3-4 6a467 467 0 0 0-9 58l-1 16-4 4c-12 8-23 3-29-14l-7-18c-5-12-7-18-7-25 0-5-2-11-14-42-15-39-16-42-20-47-5-5-13-10-14-9l-1 11-3 13c-1 3-6 7-9 7l-12-7-43-23c-46-23-57-30-81-48l-28-21c-4-2-7-6-9-8l-29-44c-8-10-23-26-25-26l-2 1zm277 497a804 804 0 0 1 65 227c1 19 3 67 2 72-2 7-6 12-14 14h-14l-46-11-8-2-4-8-4-9c0-3-7-21-12-32l-6-12 2-14a564 564 0 0 0 11-138c2-5 2-8 3-21 1-19 1-22 8-57 6-32 6-31 7-31l10 22z" />
    <path
        fill="#ffffff"
        d="m1904 1112-18 30c-11 21-16 34-18 54l-3 21c-3 18-4 39-4 59l2 34-1 28c-4 20-1 55 7 89l4 27c4 37 8 52 29 94 11 23 11 25 13 40l8 29c23 67 23 64 29 98l6 29c3 13 3 14 4 40l2 31c2 7 1 14-3 23-3 7-3 8-3 17 0 8 0 11 4 26l19 49c8 17 13 41 15 68a694 694 0 0 1-2 108 287 287 0 0 1-29 112c-3 5-13 13-28 22l-11 7a216 216 0 0 0-5 81c2 6 2 12 3 28 1 31-4 58-15 100a601 601 0 0 1-42 110l-3 14c-5 19-14 35-28 50-4 5-4 6 2 8 13 6 31-2 56-23a905 905 0 0 1 74-59c9-7 10-8 12-7 8 7 11 10 15 17 8 15 16 24 40 48l28 30 3 4-14 23a499 499 0 0 0-38 83c1 2 3 1 4-2 7-17 14-30 31-56a749 749 0 0 0 24-35 173 173 0 0 1-21 158c-5 6-7 10-6 10 1 2 2 1 10-10 23-30 36-63 39-100 2-25-3-56-13-75-1-3-2-6-1-7 0-3-2-6-4-6l-3-3-23-29-8-9 24 6c28 9 54 32 69 63 7 15 11 28 14 47 1 9 2 12 3 12 2 0 2-24-1-36a150 150 0 0 0-96-109c-17-6-22-9-30-14-10-8-14-12-18-22l-4-11c0-2 6-7 27-23 42-32 38-28 60-58 26-37 27-39 32-42 3-3 5-3 15-4 9-1 12-1 15-3 6-4 10-8 14-18 6-14 13-28 23-41l9-16c8-18 17-31 34-45 13-11 18-16 27-29 17-24 20-35 23-72 1-17 3-32 12-95 7-49 8-59 4-70-2-7-8-16-11-18-2-1-2 0-3 3l-12 41-15 35-18 41c-25 57-46 92-72 117-11 11-28 23-29 21l-11-17-14-24-4-6 1-37v-37l4-8 7-17c2-9 3-11 3-25 0-18 0-21 3-21 1 1 4 0 5-1l3-1-2-4c-3-6-3-12 1-20a421 421 0 0 1 84-95c8-6 10-9 15-16a272 272 0 0 1 16-23c0-2-6-1-17 2-21 4-32 4-40-1-3-1-5-1-24 4-18 5-23 5-29 5-8 0-8-1-11-4l-5-8-6-64c-3-33-4-35-16-41-8-5-9-7-10-20-4-27-4-43-2-69 1-26 1-39-1-56-3-15-4-14 9-14 12-1 27 0 35 3 9 3 22 14 31 25l5 6h6c7 0 12 3 19 11 6 6 13 22 16 34 7 30 4 72-7 119-2 9-3 19-1 19l32-17c3-2 4-5 9-13 11-22 22-56 30-85 4-19 8-28 12-33 2-2 2-2 1-10a323 323 0 0 1-7-75c1-8 1-9-1-12-6-9-14-28-17-44-2-8-2-14-2-27 0-19 1-28 6-43 3-7 3-8 1-12l-1-13c0-7-1-13-6-34-9-32-11-43-12-63-2-40-9-60-27-83-10-11-16-18-15-14 4 10 5 36 3 52-3 13-7 30-12 43l-4 16c0 10-10 31-22 46-7 8-21 22-28 27-8 5-22 9-32 10-6 0-9 0-17-2l-10-4c-2-2-1-25 2-47a1326 1326 0 0 0 8-88l-2-1-3 9c-2 20-7 32-27 69l-9 15-8-17c-18-35-23-63-21-101 2-31 8-50 22-63 6-6 7-7 6-8-2-3-10 2-17 10-14 15-29 55-33 91a268 268 0 0 0 8 90l-6-4c-5-4-13-8-21-10-8-3-12-7-15-12l-23-56c-5-14-5-14-4-20 2-7 0-17-7-41-11-39-14-66-17-132-1-19-1-24-3-28-2-7-4-7-9-3zM5525 1177a629 629 0 0 0 19 127 2326 2326 0 0 1 14 72c4 19 6 38 8 83 2 43 5 82 8 108 2 20 2 49-1 72l-3 44c-2 27-4 43-7 57-4 20-12 40-22 55-5 8-7 13-8 21-2 26-11 41-30 51-9 4-11 6-14 11-4 8-3 13 8 35l18 34c21 34 28 53 34 86 3 21 3 23 7 25 9 6 12 17 14 43 1 20 0 44-3 81-8 76-20 137-31 156-3 7-9 10-16 10s-11-2-16-8c-17-19-34-55-41-88a349 349 0 0 1 5-166l1-19 1-9-4-5-10-13-12-20-16-27c-3-8-9-33-12-54-2-13-3-16-7-22-7-14-10-27-12-53-2-31 1-57 13-126 10-54 9-49 6-54l-3-4-30 50c-24 43-39 80-50 124-9 38-11 45-16 52-2 2-3 3-2 9l1 12c0 6 0 7 6 14 12 19 19 42 23 72a512 512 0 0 1-7 112l-7 18c-1 7-4 14-5 16l-3 17a187 187 0 0 1-7 41c-2 10-2 11 0 12 11 6 13 9 26 33a629 629 0 0 0 18 30 2779 2779 0 0 0 23 66c1 5 0 23-3 37-2 12-11 37-18 55l-5 13-13 12-28 24c-15 12-15 12-20 12l-19 4-13 3h-26l-28-1c-4 0-30 2-38 4-10 2-20 7-26 13-7 7-6 11 1 4 13-11 30-13 68-9l39 3h21l-9 9c-23 20-38 38-50 63a258 258 0 0 0-23 122l1-9c0-9 3-30 6-44 3-18 9-35 18-52 15-30 34-50 74-78l49-33-3 7-10 43c-2 10-2 15-2 34 0 21 0 24 2 35 4 16 11 38 18 55 7 15 8 17 10 15 2-1 2-2-2-12-15-40-18-78-9-112 4-15 12-29 29-53 17-25 22-32 32-51l9-18c1 2 4 15 6 31l6 20 3 7 8 2c11 2 26 8 38 15a418 418 0 0 1 120 116 612 612 0 0 1 81 115h3a225 225 0 0 0 7-72c0-45-3-78-9-106l-3-17v-35l-2-48a834 834 0 0 1 26-252l3-23c2-22 4-35 11-64 7-30 8-40 6-48 0-2-1-3-4-5-14-6-29-32-37-66-4-14-6-32-9-56-1-20-3-124-2-157 2-50 10-91 33-162a445 445 0 0 0 14-49l2-5-4-7c-8-13-13-29-15-46-2-18-6-34-9-40-10-17-23-53-37-105-15-53-21-66-29-76l-43-59-19-34c-19-37-28-51-32-51h-3zM4589 1190l3 9c3 11 3 28 0 39-3 12-11 28-24 48-16 27-21 37-26 52l-1 6-2-4c-2-7-6-28-7-44l-4-32c-2-22-5-36-10-47-9-17-15-22-28-23l-15 1c-9 3-17 7-17 9h2c14-5 26-6 33-3 9 5 15 15 19 30 2 10 2 42 1 71-1 18-1 18-8 0-8-19-12-37-13-56 0-10-1-13-2-13-2 0-2 5-2 26 0 17 0 22 2 32a257 257 0 0 0 31 80 307 307 0 0 0 22 51c-1 2-29 17-43 23-4 1-6 3-7 5-2 4-17 13-27 18l-18 6-22 3c-13 0-14-1-18-3-4-3-6-3-7-2-2 3 5 26 19 60 14 33 17 43 15 52-1 4-1 5 3 13 6 11 7 20 7 41 0 36-7 67-18 81-4 5-10 9-16 10-4 0-5 1-5 11s-3 16-17 30c-12 13-17 21-19 28l-1 6 10 10c15 17 38 48 46 64 5 11 7 17 8 26 2 13-1 21-8 24l-5 2v6c2 12 3 64 3 79-1 26-6 45-20 73-9 18-12 27-13 41 0 14 2 36 5 35l7-4c6-3 7-3 17-3 7 0 11 0 17 2 28 9 59 34 82 67 12 17 25 44 29 64l4 10 7-6c6-8 15-15 21-17 15-6 15-5 25-3 11 3 19 7 26 13 13 13 22 32 26 59l2 37c0 25 0 26 1 24l26-43 19-30 4-6v-20c0-31 6-72 16-116l2-9-3-11c-3-9-4-13-4-20 0-10 2-24 6-38 3-13 3-19-2-26-8-14-11-23-13-39l-7-123c-1-25-3-39-6-53-6-20-13-31-22-34-6-2-7-1-7 5 1 6-1 35-3 53-4 26-13 70-20 94l-7 23-3 12 3 8c12 32 15 67 8 87-6 15-22 22-36 17-9-2-14-9-23-25-3-6-3-6-7-6-5 0-11-4-16-11-3-5-4-6-7-6-12 0-20-8-24-25-2-9-2-30 1-57l2-21-4-8c-5-12-8-24-9-48l-3-14c-3-12 1-23 14-34a584 584 0 0 1 75-44l9-13 13-19c6-10 7-11 8-17 0-6 0-7-2-7l-47-3-11 3c-8 3-19 3-24 1l-10-2c-8 0-19-3-22-6s-2-8 2-23l3-12 1-42a796 796 0 0 1 2-70c0-13 1-22 4-38 2-7 11-25 16-30 4-5 7-6 12-7l6-3c4-5 16-7 22-3 8 6 13 17 17 37l1 42c0 33 0 41-5 67l-2 26-2 19c-1 3-1 3 2 2 4 0 11-9 33-39 32-45 34-47 44-76l14-38c6-17 8-23 8-29s-3-15-9-23c-6-9-9-18-12-29l-1-31c0-21 0-25-2-32a432 432 0 0 1-1-128c-1-1-9 1-18 7-24 13-34 22-48 41-11 14-13 16-28 29-13 11-12 11-14-9-3-24-2-48 3-64l12-30c11-25 14-36 17-48 1-9 1-25-1-33-1-8-7-20-9-20l-1 1zM1500 1242c-13 22-35 48-49 58-17 12-48 24-95 37l-41 12-15 5h-20c-22 0-28-1-43-8-7-3-8-3-10-2s-3 2-3 9c-1 14-1 18 1 29 2 12 2 40 0 48l-2 27c-1 24-2 28-8 35l-4 5v15l-2 21a472 472 0 0 1-68 118c-32 38-36 41-73 50-64 15-118 29-134 35l-18 11-2 3 3 2 9 3c12 3 35 18 52 34 15 15 29 34 29 40l3 6c5 5 8 10 9 17l2 9c4 4 11 15 16 25 6 14 10 26 18 53l15 45 8 9c5 6 6 9 9 15 4 12 21 50 29 65s10 22 9 31l1 10 49 79c8 12 15 26 94 181 71 138 67 131 72 135 6 6 8 8 12 20 5 13 13 26 21 36a612 612 0 0 0 21 35c12 21 15 30 19 47 2 13 5 22 13 39l8 15 14 7c10 6 15 8 17 8 6 0 8 2 11 6a684 684 0 0 1 102 83c32 30 62 56 63 55 2-2 3-15 3-27-1-10-2-17-8-43-8-36-10-50-12-79-2-23-4-33-7-51-7-32-9-53-9-111v-41l3-15c5-27 9-72 7-88-2-15-7-26-16-37l-6-8-26-74c-4-13-5-19-10-48-6-31-10-44-17-67l-12-38c-9-35-16-52-26-68-5-7-7-8-10-9-2 0-2 1-2 35l-2 58-3 36c-1 11-1 13-3 17-2 3-2 4-2 18 0 16 0 21 5 30 2 4 2 4 0 11-2 8-1 18 4 34 3 11 3 15 4 28l2 24c4 16 2 34-4 53l-7 12c-3 3-3 3-11 3-9-1-16-4-18-7l-31-80c-1-4-3-7-9-13-8-8-12-15-21-35l-11-21a1454 1454 0 0 1-49-92l-17-32c-13-28-47-109-57-138-6-15-22-69-22-70l28-8a1878 1878 0 0 0 75-22 1037 1037 0 0 0 54-12c13-10 31-23 36-25 1-1 0-3-3-5-5-4-27-13-41-15l-13-4-33-8-45-11-23-7a148 148 0 0 0-41-6h-5v-5l1-4c2-2 1-3-2-4-6-3-5-6 4-16l15-17c7-9 7-11 10-21a258 258 0 0 1 42-85l5-5 11-35 17-52 8-26c3-10 6-15 15-19l8-6c3-4 24-19 33-23 9-6 14-5 18 1l8 21 9 23a1723 1723 0 0 1 2 62 365 365 0 0 0 2 84c2 14 0 30-5 61a211 211 0 0 1-18 68l4-2c8-3 29-28 57-65 16-21 29-33 36-33l6-6 10-12c7-7 9-12 10-25 0-6 2-16 5-27 6-27 8-42 9-69 1-24 1-24 3-30l3-5-1-12a1175 1175 0 0 0-11-87c-1-17-2-21-6-35-6-22-8-42-12-88-2-28-3-33-12-53-6-16-9-20-11-20l-4 5z" />
    <path
        fill="#ffffff"
        d="m4177 1241 5 6c5 5 9 13 11 21 2 7 1 25 0 36l-14 56-4-6c-7-12-18-27-25-35a69 69 0 0 0-63-22c-22 2-32 5-30 8h21c23 1 30 2 40 8 16 8 28 26 46 66a572 572 0 0 0 18 43 260 260 0 0 1 18 51v6l-15-5c-19-6-27-9-35-14-24-13-40-38-44-72-1-9-2-11-3-11-2 0-2 0-2 12 2 33 14 59 36 76 11 9 20 13 46 23 16 7 22 10 23 12l7 7 4 5-2 4c-6 15-15 29-24 40-14 16-19 22-18 24l7 32c2 16 4 22 8 25 11 8 13 11 14 28l3 21c8 29 9 38 5 50l-2 7 3 9c3 11 4 18 2 26l-11 27-16 9a6547 6547 0 0 0-32 10c-7 0-9-1-15-5-6-5-11-5-25 0-16 7-24 8-35 8-14-1-17-4-18-18-1-7-1-8-4-12l-5-8c-2-5-2-17 1-29 2-7 2-13 2-21 0-14-1-21-5-27-3-4-4-6-12-9-12-6-18-11-22-20l-7-8c-4-3-13-13-18-22-9-17-13-37-15-68-2-33 1-73 9-118l11-62c1-2 1-2-2-3-4 0-3-1-33 31-14 16-16 19-19 25-4 10-9 19-18 29l-10 15c-2 6-3 7-2 24 0 7 0 8-3 14-1 4-5 10-8 13-10 13-12 21-8 36l1 26c0 22-2 36-12 65-7 22-6 28 7 41a4217 4217 0 0 1 34 64l5 12v23c0 22 1 23 3 32 3 10 3 11 3 32 0 18 0 23-2 31-2 10-2 10 0 23 4 27 9 77 10 92 1 32-2 46-21 93-7 20-9 27-9 36 0 3 1 6 13 22a601 601 0 0 1 72 120c5 4 11 12 15 22 7 19 13 34 19 44l21 33 3 3-1-4a509 509 0 0 1 3-138c2-4 1-5-2-14-6-18-9-37-12-64a465 465 0 0 1-1-76 317 317 0 0 1-5-39v-9l3-11c2-12 7-25 12-33 2-1 4-5 5-7 3-6 7-9 14-11 4-1 7-2 11-6 9-9 8-8 30-7 21 2 36 5 44 8 32 12 53 50 57 101 2 29-3 66-14 100-6 17-7 25-6 32 1 5 2 6 11 13l15 15 16 17c11 9 13 12 17 20 3 6 5 12 6 20 3 13 6 20 10 24 2 3 2 4 6 43l11 104c1 23-1 39-11 69-6 16-6 20-3 27l2 5a990 990 0 0 1-21 68l19-20c61-64 65-68 67-75 3-13 12-33 24-52l5-7 1-22c2-35 3-43 10-65 6-19 7-23 10-49 4-33 8-55 14-78 7-30 6-36-6-50l-13-14a49 49 0 0 1-18-35l-1-11-5-6c-12-13-20-42-23-82-1-15-1-21 2-90v-46l-2-48c0-36 0-43 5-62 5-22 8-44 8-79 0-19 0-21-7-28-8-9-8-9-8-44-1-34-2-42-7-60a595 595 0 0 1 25-156 568 568 0 0 1 79-130c0-2-20 0-33 2-11 2-35 10-48 15-8 4-10 5-12 9-13 21-44 52-73 71l-10 7-9 16-10 16-3-7c-7-22-19-48-35-76l-8-14 1-10 4-26 7-48c1-25-5-45-18-53-4-3-7-4-7-2zM5145 1244c-30 6-58 15-93 29-44 18-82 38-109 57-12 9-25 16-30 16-2 0-4 0-6-2-1-2-3-3-3-2l-7 25-3 11c-2 4-8 6-13 6-2-1-3 0-5 2-5 6-8 7-27 7l-25 3c-13 4-17 3-26-8a655 655 0 0 0-36-35c-4-2-4-2-5 0-1 3 0 10 3 25 7 27 9 44 10 64 0 18 0 19 4 27 6 18 12 43 12 56 0 9-3 16-9 19-3 2-4 2-4 8l-1 7c-2 2-1 3 2 14 5 19 6 27 5 34l-2 8c-2 3-1 6 3 13 6 13 5 24-3 34l-5 13-5 17-3 8 3 3c6 6 7 15 2 24-6 11-26 28-43 37-7 3-10 5-13 9-5 6-17 14-21 15l-3 2c0 1 14 15 36 34 21 18 41 38 47 46 6 10 6 19-1 28l-4 4 4 19c2 11 7 27 10 36 6 20 7 26 10 50v23c-1 5-20 40-29 55-8 14-10 20-10 29-1 7 0 8 3 15 10 18 17 33 18 38l1 21c0 32 2 51 12 121a2476 2476 0 0 1 20 168 1885 1885 0 0 0 30 156c4 30 7 43 15 55 6 9 13 11 13 3l3-20 2-22 3-24c4-33 4-35 3-44a46523 46523 0 0 0 11-228l4-8 2-3-2-14c-2-17-2-21 0-37v-26c0-15 1-26 5-54 3-16 3-21 3-33 0-17 0-20 9-40l7-15c2-4 7-5 20-5 11 0 12 0 18 3 13 6 28 21 40 40a430 430 0 0 1 54 109c12 29 15 44 16 70 0 16 0 19 2 22 3 5 6 16 8 28a407 407 0 0 1-3 102l6-7a419 419 0 0 1 27-32l5-14c7-25 17-45 27-61l7-9 2-27c3-42 6-66 9-86l2-19-2-4a362 362 0 0 1-32-209l-8-1c-5 1-8 1-11 3-6 3-21 8-25 8-5 0-25-13-34-22-6-6-11-14-14-22l-4-25-4-6c-5-5-6-10-5-18 2-8 10-31 16-42 8-15 14-23 32-40 17-16 33-34 37-42 4-7 6-16 6-23l-5-17c-7-17-8-22-8-42s0-24 12-71c10-42 10-46 10-56-1-11-3-15-12-23-7-7-17-20-21-27-4-8-6-19-7-37-2-20-4-28-8-36-4-7-6-23-6-41 0-16 1-28 5-45 5-25 11-40 26-60a1162 1162 0 0 0 42-59 427 427 0 0 0 26-39l-15 3zm-229 283 31 27 2 6 3 7c2 2 3 2 6 2s7-2 11-5l6-4 4 5 4 8c2 5 1 13-2 19l-3 6 2 14a742 742 0 0 1 9 84l-8 24c-2 3-3 5-3 10 0 9-2 15-10 31a939 939 0 0 0-34 70c-6 11-10 18-16 22l-3 2-22-22c-12-12-23-23-23-25-3-5-2-11 4-48 10-60 10-67 6-93-3-20-4-33-4-49 1-17 2-24 9-36l10-28c6-18 12-31 14-31l7 4zM3307 1294c-7 8-11 14-15 23-5 10-7 18-8 31 0 14 2 27 8 46l5 15-47-20c-13-7-24-16-30-25-5-8-7-15-8-27 0-10-1-10-3-11-2 0-3 3-3 15 0 20 8 37 25 51 9 7 19 13 41 24 20 10 28 14 36 22 4 4 6 7 11 16 7 14 12 27 11 28l-10-1c-18-4-26-2-31 7-2 4-4 5-5 5l-15-5c-17-5-21-7-35-16l-17-11c-6-3-16-5-21-5a598 598 0 0 0-68-36c-13-6-29-11-39-13-7-2-42-6-67-9-13-1-20-1-25 2l-3 2 4 3c7 6 18 17 24 25l15 17c22 26 41 63 52 99 2 7 5 16 8 21l9 21 17 28c4 4 6 6 8 14 7 25 7 50 0 74-5 18-12 25-26 25l-14-3c-12-3-18-3-22 0l-2 3 4 5 25 30c21 23 30 37 32 51l6 14c5 9 10 19 16 36l14 34 10 19v11c0 11 0 12 11 55 14 50 18 70 20 83 2 16 0 31-7 42-5 8-5 8-6 24l-3 25-14 61c-5 19-13 32-28 47l-13 16-4 6 2 6c4 12 5 20 5 37l-1 22-1 6 6 6 10 14c3 6 4 8 4 15l-1 15c-3 9-2 14 3 38 7 38 14 65 31 117 7 23 10 32 21 49l10 18c4 8 11 16 18 21l15 9 12 6v-5l-10-55c-9-37-13-87-9-104 2-8 5-14 9-19 2-3 2-3 1-13v-13l2-8c0-6 3-25 6-36 5-18 13-40 25-66 10-23 14-27 29-31 11-3 23-8 34-16l14-8c2-1 3-2 2-3v-3l12-1c10 0 11 1 19 5 16 7 27 22 33 43a116 116 0 0 1 1 48c1 1 10-7 18-15 10-11 22-25 28-36l13-17c6-6 7-7 9-13l1-9c0-3 1-4 4-7 5-5 6-7 6-17 0-32 7-58 19-73 3-2 6-7 7-10 7-12 15-21 23-22 3-1 4-1 3-5 0-6-6-17-14-26l-11-14c-11-16-18-37-20-60a376 376 0 0 1 24-154l5-20a542 542 0 0 1-32 16c-12 6-32 20-52 36l-10 7-5 12-26 53c-5 9-5 8-7 39-2 26-4 40-7 54-4 12-7 19-13 25-4 4-17 12-20 12-1 0-13-20-15-26a1054 1054 0 0 1-27-112c-2-4-4-9-4-13-2-7-4-29-4-42 0-16 5-28 17-39l11-11c4-7 11-15 17-19 3-3 4-4 5-8 5-16 17-40 26-55l5-7h-10l-15-1h-17c-12 2-27 2-36 1-9-2-21-7-28-12l-10-7c-5-3-9-10-11-22-4-14-6-70-4-82 2-10 6-24 11-35 4-9 16-23 18-22l9 8c9 8 13 14 26 37l12 20c3 2 8 4 9 3l1-7c0-18 12-45 28-60 11-11 25-17 41-17 17 0 25 5 32 19l9 16c8 11 10 18 13 31 3 11 4 31 2 36-1 3 0 5 1 11 3 10 5 26 5 39s-1 20-5 45l-2 17 8-3c13-6 28-20 41-37 9-12 14-30 16-66v-53a669 669 0 0 1 3-126c0-9-1-10-4-17-3-6-7-10-17-17-6-4-9-9-13-24-10-35-15-61-19-85-2-15-4-20-11-30-4-7-7-10-10-9l-8 14c-7 16-15 28-26 43-15 19-27 29-40 32-5 1-14 9-24 21-5 7-9 10-10 9l5-16c6-24 8-34 9-51 0-15 0-23-4-34-1-4-1-5-3-5s-2 1-2 2l1 15c0 15-1 22-5 35-3 9-15 34-17 37a644 644 0 0 0-18-25c-35-51-45-78-39-105 1-9 9-23 16-31 4-6 5-8 4-9-2-2-5-1-11 5zM5302 1323c-23 36-40 67-55 105-9 23-10 30-10 45s1 22 7 35c3 6 5 13 7 24a243 243 0 0 0 8 31c2 4 16 30 21 36l2 2 16-9 29-16 15-9c2-2 4-6 7-23l4-20-2-5c-5-11-9-26-11-43l-5-21a456 456 0 0 1-16-136c0-6 0-9-3-11l-3-2-11 17z" />
    <path
        fill="#ffffff"
        d="M2918 1389c-8 3-13 5-19 10-12 11-22 17-43 24l-10 3h-17c-17 0-18 0-31-3-17-5-30-6-39-4l-14 7c-13 9-25 11-39 7-10-2-24-3-32-1l-13 2-7 2c0 1-1 2-4 1l-6 1c-4 1-3 5 4 8 24 10 31 15 39 25 10 13 16 29 16 42l2 10 5 22 7 30c6 25 6 29 7 61v29l2 9 4 16 4 17c2 7 2 9 2 21-1 9-1 16-3 21-3 9-10 25-14 31l-4 5 2 2c3 3 3 3 11 3l15-2c9-3 29-2 41 0 40 9 88 39 97 60l2 4c15 4 26 9 44 23l14 9 9 2c9 3 17 11 24 23 3 6 4 6 8 7 9 1 15 6 26 20a181 181 0 0 1 33 62c0 9 3 31 5 35 6 15 10 33 11 58 0 19-1 29-6 44-3 11-7 19-13 25-4 5-4 5-6 15l-1 10-17 8h-9l-4-2-5 4c-5 5-9 4-14-1-9-8-18-10-39-11-22 0-22 0-38-16-12-12-17-19-18-27-1-3-7-9-10-9-4 0-6-2-17-17-6-9-9-21-11-51 0-9 0-10-4-14-8-8-10-17-17-55a493 493 0 0 1-11-94 531 531 0 0 0-67 183l-1 9 10 42c16 63 18 74 23 121a342 342 0 0 0 17 86c3 6 6 13 6 18l4 16a485 485 0 0 1 28 65c7 17 9 19 18 21 8 1 9 1 8-4a270 270 0 0 1-1-54c5-31 14-54 30-73 3-4 7-5 7-3l5-2c14-8 32-11 48-9 21 3 25 3 33-1 14-5 19-4 29 8s16 22 31 54c13 26 20 37 28 42 4 2 11 3 13 1l3-14a547 547 0 0 1 45-156c6-19 12-36 22-55 10-21 11-26 11-35-1-6-2-9-6-17-7-14-8-22-8-44 1-28 4-39 15-75 6-19 6-20 6-28-1-15-8-24-24-32-12-6-19-12-23-20l-12-34-24-66-4-10-7-4c-18-10-31-32-51-83-9-24-9-24-12-24-4 1-10 6-14 11-5 7-12 13-22 20-12 8-16 9-25 9s-14-2-26-11c-17-12-24-23-26-38-1-10-4-16-9-18l-14-6c-10-4-11-5-14-3-19 6-40-13-51-46-6-20-3-51 7-72l3-9c-2-1 6-10 12-14 16-11 40-7 54 9 4 5 6 7 7 14l7 11c11 15 23 42 26 57l4 13c5 8 7 16 8 32 3 18 2 32-1 43 0 2 0 3 3 6l3 3 5-5c6-6 13-17 17-25a396 396 0 0 0 31-86c3-7 9-11 15-11h4v-5l-2-15a768 768 0 0 1-7-49c-2-11-7-20-15-28-6-7-8-11-20-36a1049 1049 0 0 1-20-50l-8-7c-9-8-12-13-13-20 0-6-1-6-3-8-4-2-9-2-16 0zM5180 1409a325 325 0 0 0-30 106l-4 6a273 273 0 0 0-5 27l5 38 8 56c2 22 5 32 10 43 3 7 3 8 3 16l-2 17-4 26a254 254 0 0 1-56 131c-9 11-13 19-13 24 0 3 0 4-2 4-1 1 0 2 4 4 10 6 20 17 31 36 20 35 26 56 42 143a940 940 0 0 0 70 233c12 27 29 58 31 56 2-1 9-19 11-25 2-9 2-16-1-37l-2-40-2-57a801 801 0 0 1 4-138c2-14 7-31 18-60l11-32 2-7-2-3c-9-11-15-28-23-68a362 362 0 0 1-8-161c4-18 12-35 21-51l4-6-6-6c-6-6-16-21-16-24l-5-6c-16-18-37-52-50-82-14-32-20-54-25-83a693 693 0 0 0-17-85l-2 5z" />
</svg>